<svg xmlns="http://www.w3.org/2000/svg" width="235.589" height="322.547" viewBox="0 0 235.589 322.547">
  <g id="Group_675" data-name="Group 675" transform="translate(-88.156 -83.943)">
    <g id="Group_665" data-name="Group 665" transform="translate(88.156 243.693)">
      <path id="Path_451" data-name="Path 451" d="M135.3,602.141c-1.523,6.724-9.363,5.634-19.9.8-12.586-5.771-30.459-25.953-26.747-42.058v0a18.214,18.214,0,0,1,1.571-4.283c8.582-16.594,42.942,29.588,44.628,37.162A19.768,19.768,0,0,1,135.3,602.141Z" transform="translate(-88.156 -553.026)" fill="#fc0"/>
      <path id="Path_452" data-name="Path 452" d="M135.3,617.359c-1.523,6.724-9.363,5.634-19.9.8-12.586-5.771-30.459-25.953-26.747-42.058C94.2,589.963,107.3,612.2,135.3,617.359Z" transform="translate(-88.156 -568.244)" fill="#fc0"/>
      <path id="Path_453" data-name="Path 453" d="M121.716,567.207c2.979,3.242,7.4,9.066,6.358,10.172-1.063,1.129-7.846-2.632-12.46-8.137-3.15-3.759-5.868-9.022-4.832-9.917C111.954,558.31,117.831,562.979,121.716,567.207Z" transform="translate(-102.928 -557.086)" fill="#fc0"/>
    </g>
    <g id="Group_666" data-name="Group 666" transform="translate(144.58 284.428)">
      <path id="Path_454" data-name="Path 454" d="M358.341,698.659c0,28.039-19.671,60.973-50.923,60.973-19.366,0-35.3-11.857-44.62-27.708a63.763,63.763,0,0,1-8.96-31.9c0-28.725,31.351-27.356,51.22-27.356,21.791,0,47.658-1.669,52.481,18.624A31.389,31.389,0,0,1,358.341,698.659Z" transform="translate(-253.838 -672.638)" fill="#fc0"/>
      <path id="Path_455" data-name="Path 455" d="M375.691,734.786c0,28.039-19.671,60.974-50.923,60.974-19.366,0-35.3-11.857-44.62-27.708,19.409,9.136,74.7,28.06,94.741-40.629A31.388,31.388,0,0,1,375.691,734.786Z" transform="translate(-271.188 -708.765)" fill="#fc0"/>
      <path id="Path_456" data-name="Path 456" d="M282.01,708.189c-4.06,6.62-1.188,16.04,5.783,19.738,7.368,3.909,17.393.4,20.132-7.366,2.6-7.381-2.413-15.654-9.6-17.975C292.565,700.725,285.385,702.685,282.01,708.189Z" transform="translate(-271.188 -691.936)" fill="#fc0"/>
    </g>
    <g id="Group_667" data-name="Group 667" transform="translate(255.146 287.838)">
      <path id="Path_457" data-name="Path 457" d="M615.678,725.606c-.313,12.886-3.317,20.752-11.869,16.658a26.446,26.446,0,0,1-4.914-3.2c-6.068-4.84-32.5-55.97-13.822-56.408a20.433,20.433,0,0,1,13.092,4.695C609.259,695.962,615.953,714.406,615.678,725.606Z" transform="translate(-578.499 -682.651)" fill="#fc0"/>
      <path id="Path_458" data-name="Path 458" d="M653.762,734.706c-.313,12.886-3.317,20.752-11.869,16.658,2.768-6.814,5.222-22.533-5.643-54.914C647.343,705.062,654.037,723.506,653.762,734.706Z" transform="translate(-616.582 -691.751)" fill="#fc0"/>
      <path id="Path_459" data-name="Path 459" d="M599.207,729.344c3.455,8.008,8.6,21.947,7.12,22.632-1.334.618-8.239-9.461-11.952-21.106-2.068-6.487-3.361-14.137-2.289-14.495C593.42,715.93,598.132,726.853,599.207,729.344Z" transform="translate(-587.205 -704.881)" fill="#fc0"/>
    </g>
    <g id="Group_672" data-name="Group 672" transform="translate(123.727 152.605)">
      <path id="Path_460" data-name="Path 460" d="M235.641,434.043a20.243,20.243,0,0,1-4.27-6.265,19.438,19.438,0,0,1,13.453-26.927,20.116,20.116,0,0,1,4.995-.554C253.711,422.529,235.641,434.043,235.641,434.043Z" transform="translate(-217.061 -361.22)" fill="#fc0"/>
      <path id="Path_461" data-name="Path 461" d="M238.893,434.043a20.244,20.244,0,0,1-4.27-6.265c2.269-3.961,4.548-8.177,6.8-12.648,2.477-4.926,4.685-9.7,6.656-14.28a20.117,20.117,0,0,1,4.995-.554Z" transform="translate(-220.313 -361.22)" fill="#ebbe09"/>
      <path id="Path_462" data-name="Path 462" d="M354.87,414.519c-2,27.781-65.7,36.96-95.492,20.169-8.278-4.665-13.938-11.337-14.933-20.169-4.579-40.62,22.314-77.812,53.211-77.812,11.2,0,24.352,4.287,35.243,13.783C346.859,362.647,357.123,383.348,354.87,414.519Z" transform="translate(-226.454 -319.288)" fill="#fc0"/>
      <path id="Path_463" data-name="Path 463" d="M213.318,358.317a28.86,28.86,0,0,1-9.819-9.923c-3.858-6.283-7.43-17.193-2.542-33.489l2.877.863c-3.647,12.158-2.927,22.561,2.142,30.919a26.4,26.4,0,0,0,8.764,8.984Z" transform="translate(-196.547 -304.911)" fill="#fc0"/>
      <circle id="Ellipse_14" data-name="Ellipse 14" cx="6.993" cy="6.993" r="6.993" transform="translate(0)" fill="#fc0"/>
      <path id="Path_464" data-name="Path 464" d="M367.265,450.8c0,5.575-6.12,9.007-14.006,11.046-8.308,2.15-18.577,2.755-25.726,2.686-10.234-.1-29.974-1.875-37.093-8.359A7.181,7.181,0,0,1,287.8,450.8a21.518,21.518,0,0,1,6.583-15.465,22.735,22.735,0,0,1,15.9-6.4h34.506a22.667,22.667,0,0,1,17.753,8.45A21.4,21.4,0,0,1,367.265,450.8Z" transform="translate(-255.378 -380.103)" fill="#2d2d2d"/>
      <path id="Path_465" data-name="Path 465" d="M372.383,467.158c0,5.575-6.119,9.007-14.006,11.046-8.308,2.15-18.577,2.755-25.726,2.686-10.234-.1-29.974-1.875-37.093-8.359,6.73-.2,23.987-1.86,23.987-1.86s36.509-7.007,48.11-16.931A21.4,21.4,0,0,1,372.383,467.158Z" transform="translate(-260.497 -396.464)" fill="#2d2d2d"/>
      <path id="Path_466" data-name="Path 466" d="M363.236,571.426a23.876,23.876,0,0,1-15.332-5.317c-6.626-5.368-8.733-12.908-6.609-13.075,3.3-.253,11.187,3.69,20.087,3.69,10.226,0,17.195-2.575,22.452-2.789.236-.013.464-.017.691-.017C389.863,553.918,383.327,571.426,363.236,571.426Z" transform="translate(-290.133 -461.935)" fill="#2d2d2d"/>
      <path id="Path_467" data-name="Path 467" d="M384.775,441.208c-2,27.781-65.7,36.96-95.492,20.169,18.2,3.021,72.392,9.655,82.142-16.452,8.385-22.452-1.982-52.408-8.621-67.745C376.763,389.336,387.028,410.037,384.775,441.208Z" transform="translate(-256.359 -345.977)" fill="#fc0"/>
      <path id="Path_468" data-name="Path 468" d="M296.656,373.393c1.646,2.171,11.767-2.373,18.563-7.374,6.514-4.794,13.165-12.355,11.7-14.495-1.3-1.9-8.777.808-13.478,3.306C302.92,360.42,294.863,371.028,296.656,373.393Z" transform="translate(-261.056 -328.638)" fill="#eec008"/>
      <path id="Path_469" data-name="Path 469" d="M253.818,524.218c.241,7.421,4.776,14.467,6.61,13.986,1.926-.5,1.142-9.368.254-14.24-.255-1.4-1.813-9.954-3.814-9.917C255.295,514.075,253.662,519.412,253.818,524.218Z" transform="translate(-232.965 -436.233)" fill="#fc0"/>
      <g id="Group_669" data-name="Group 669" transform="translate(83.025 54.234)">
        <g id="Group_668" data-name="Group 668">
          <path id="Path_470" data-name="Path 470" d="M461.528,459.892a10.052,10.052,0,1,1-.882-4.109A10.044,10.044,0,0,1,461.528,459.892Z" transform="translate(-439.721 -448.133)" fill="#f3c404"/>
          <path id="Path_471" data-name="Path 471" d="M448.159,446.525a10.048,10.048,0,1,1-10.045,10.043,10.036,10.036,0,0,1,10.045-10.043Zm0-1.716a11.76,11.76,0,1,0,11.76,11.76,11.615,11.615,0,0,0-1.034-4.816,11.765,11.765,0,0,0-10.726-6.944Z" transform="translate(-436.397 -444.809)" fill="#fbefc2"/>
        </g>
        <path id="Path_472" data-name="Path 472" d="M460.656,455.761c-3.749,9.064-13.049,8.794-18.519,7.74a10.039,10.039,0,0,1,18.519-7.74Z" transform="translate(-439.74 -448.13)" fill="#fc0"/>
        <circle id="Ellipse_15" data-name="Ellipse 15" cx="3.334" cy="3.334" r="3.334" transform="translate(4.656 5.092)" fill="#fff"/>
        <path id="Path_473" data-name="Path 473" d="M478.79,485.007c.546.367-.2,3.865-2.683,5.2-2.209,1.189-5.135.318-5.2-.325-.05-.473,1.467-.6,4-2.139C477.577,486.129,478.41,484.751,478.79,485.007Z" transform="translate(-459.151 -471.297)" fill="#fff"/>
      </g>
      <g id="Group_671" data-name="Group 671" transform="translate(38.469 54.234)">
        <g id="Group_670" data-name="Group 670">
          <path id="Path_474" data-name="Path 474" d="M330.7,459.89a10.051,10.051,0,1,1-.882-4.109A10.043,10.043,0,0,1,330.7,459.89Z" transform="translate(-308.889 -448.131)" fill="#f3c404"/>
          <path id="Path_475" data-name="Path 475" d="M317.327,446.523a10.047,10.047,0,1,1-10.045,10.043,10.035,10.035,0,0,1,10.045-10.043Zm0-1.716a11.76,11.76,0,1,0,11.76,11.76,11.614,11.614,0,0,0-1.034-4.815,11.766,11.766,0,0,0-10.726-6.944Z" transform="translate(-305.565 -444.807)" fill="#fbefc2"/>
        </g>
        <path id="Path_476" data-name="Path 476" d="M329.824,455.759c-3.749,9.064-13.049,8.794-18.519,7.74a10.04,10.04,0,0,1,18.519-7.74Z" transform="translate(-308.908 -448.128)" fill="#fc0"/>
        <circle id="Ellipse_16" data-name="Ellipse 16" cx="3.334" cy="3.334" r="3.334" transform="translate(4.655 5.091)" fill="#fff"/>
        <path id="Path_477" data-name="Path 477" d="M347.957,485c.546.367-.2,3.865-2.683,5.2-2.209,1.189-5.136.318-5.2-.325-.05-.473,1.466-.6,4-2.139C346.745,486.127,347.578,484.749,347.957,485Z" transform="translate(-328.319 -471.295)" fill="#fff"/>
      </g>
      <path id="Path_478" data-name="Path 478" d="M367.7,434.871c.1.667-4.416,2.239-9.091,2.67-7.584.7-14.533-1.7-14.431-2.543.047-.386,4.842-.432,14.431-.508C366.317,434.428,367.652,434.518,367.7,434.871Z" transform="translate(-292.56 -383.758)" fill="#444"/>
      <circle id="Ellipse_17" data-name="Ellipse 17" cx="3.753" cy="3.753" r="3.753" transform="matrix(0.951, -0.31, 0.31, 0.951, 1.272, 2.716)" fill="#d8ae06"/>
      <path id="Path_479" data-name="Path 479" d="M377.572,573.16a23.876,23.876,0,0,1-15.332-5.317c8.891-1.172,26.365-4.368,35.93-12.174.236-.013.464-.017.691-.017C404.2,555.652,397.664,573.16,377.572,573.16Z" transform="translate(-304.469 -463.669)" fill="#2d2d2d"/>
    </g>
    <g id="Group_674" data-name="Group 674" transform="translate(185.958 83.943)">
      <path id="Path_480" data-name="Path 480" d="M582.831,305.183c.717,6.518.434,20.422-12.543,30.086,0,0,0,0-.009,0,6.823-11.453-.579-27.112-4.253-33.57Z" transform="translate(-501.086 -227.543)" fill="#fc0"/>
      <path id="Path_481" data-name="Path 481" d="M512.851,127.8c-32.832,45.8-107.4,17.019-133.855,4.8a33.459,33.459,0,0,1,36.6-47.958l70.847,14.676A33.48,33.48,0,0,1,512.851,127.8Z" transform="translate(-375.337 -83.943)" fill="#fc0"/>
      <path id="Path_482" data-name="Path 482" d="M519.506,223.806a33.465,33.465,0,0,1-39.556,25.975l-.069-.013L473,248.339v0c-1.472,16.6-20.774,27.906-21.378,28.253,12.977-9.664,13.26-23.567,12.543-30.086l-16.8-3.48L409.1,235.1a33.385,33.385,0,0,1-23.022-17.568c26.455,12.217,101.023,41,133.855-4.8A33.445,33.445,0,0,1,519.506,223.806Z" transform="translate(-382.421 -168.871)" fill="#fc0"/>
      <path id="Path_483" data-name="Path 483" d="M648.194,318.718l-6.879-1.425v0Z" transform="translate(-550.734 -237.821)" fill="#bbdaf4"/>
      <ellipse id="Ellipse_18" data-name="Ellipse 18" cx="20.312" cy="32.33" rx="20.312" ry="32.33" transform="translate(8.396 40.987) rotate(-83.913)" fill="#fc0"/>
      <g id="Group_673" data-name="Group 673" transform="translate(26.422 18.946)">
        <path id="Path_484" data-name="Path 484" d="M471.4,168.068l-2.879-.61,2.376-11.209-12.717-2.7L455.8,164.762l-2.879-.61,5.21-24.577,2.879.61-2.285,10.781,12.717,2.7,2.285-10.78,2.879.611Z" transform="translate(-452.923 -139.575)" fill="#fff"/>
        <path id="Path_485" data-name="Path 485" d="M541.412,189.619l-12.392-2.627a6.709,6.709,0,0,0,.618,4.859,5.555,5.555,0,0,0,3.809,2.473,8.815,8.815,0,0,0,5.864-.8l-.56,2.639a10.411,10.411,0,0,1-6.475.382,7.581,7.581,0,0,1-5.337-3.63,10,10,0,0,1-.7-7.177,9.808,9.808,0,0,1,3.737-6.183,7.611,7.611,0,0,1,6.314-1.357,6.746,6.746,0,0,1,4.858,3.358,9.5,9.5,0,0,1,.573,6.587Zm-2.374-2.992a5.847,5.847,0,0,0-.371-4.037,4.089,4.089,0,0,0-2.926-2.035,4.64,4.64,0,0,0-3.678.707,6.6,6.6,0,0,0-2.5,3.356Z" transform="translate(-501.052 -164.921)" fill="#fff"/>
        <path id="Path_486" data-name="Path 486" d="M581.7,188.73l-2.811-.6,5.508-25.982,2.811.6Z" transform="translate(-535.989 -154.463)" fill="#fff"/>
        <path id="Path_487" data-name="Path 487" d="M606.66,194.021l-2.811-.6,5.508-25.982,2.811.6Z" transform="translate(-552.45 -157.952)" fill="#fff"/>
        <path id="Path_488" data-name="Path 488" d="M636.713,218.877a8.323,8.323,0,0,1-5.691-3.776,9.312,9.312,0,0,1-.94-7.013,9.7,9.7,0,0,1,3.881-6.395,8.881,8.881,0,0,1,7.057-1.1,8.047,8.047,0,0,1,5.615,3.715,9.8,9.8,0,0,1,.781,7.168,9.638,9.638,0,0,1-3.8,6.224A8.5,8.5,0,0,1,636.713,218.877Zm3.6-15.964a5.465,5.465,0,0,0-4.676.934,7.735,7.735,0,0,0-2.654,4.747,7.315,7.315,0,0,0,.551,5.257,5.536,5.536,0,0,0,3.886,2.7,5.252,5.252,0,0,0,4.565-.877,7.832,7.832,0,0,0,2.53-4.711,7.968,7.968,0,0,0-.39-5.384A5.23,5.23,0,0,0,640.312,202.913Z" transform="translate(-569.565 -179.636)" fill="#fff"/>
        <path id="Path_489" data-name="Path 489" d="M692.3,215.263a1.888,1.888,0,0,1-1.229-.834,1.844,1.844,0,0,1-.273-1.455,1.945,1.945,0,0,1,3.8.807,1.83,1.83,0,0,1-.849,1.217A1.9,1.9,0,0,1,692.3,215.263Zm6.715-24.58-4.068,17.584-2.314-.49,3.433-17.719Z" transform="translate(-609.758 -172.866)" fill="#fff"/>
      </g>
    </g>
    <path id="Path_490" data-name="Path 490" d="M648.194,318.718l-6.879-1.425v0Z" transform="translate(-364.777 -153.878)" fill="#bbe1f4"/>
    <ellipse id="Ellipse_19" data-name="Ellipse 19" cx="54.292" cy="14.076" rx="54.292" ry="14.076" transform="translate(142.705 378.337)" fill="#f1f1f1"/>
  </g>
</svg>
