<svg xmlns="http://www.w3.org/2000/svg" width="223.695" height="262.243" viewBox="0 0 223.695 262.243">
  <g id="Group_3171" data-name="Group 3171" transform="translate(-69 -172)">
    <g id="Group_3157" data-name="Group 3157" transform="translate(69 172)">
      <path id="Path_566" data-name="Path 566" d="M1965.336,1276.957l-106.094,6.1a14.593,14.593,0,0,1-14.772-12.071l-30.176-181.948c-1.172-7.068,3.541-13.124,10.528-13.525l106.094-6.1a14.594,14.594,0,0,1,14.773,12.071l30.176,181.948C1977.036,1270.5,1972.323,1276.556,1965.336,1276.957Z" transform="translate(-1814.115 -1068.982)" fill="#f5c506"/>
      <path id="Path_567" data-name="Path 567" d="M1968.845,1080.15l30.176,181.95c1.172,7.068-3.544,13.123-10.527,13.525l-106.095,6.1a14.592,14.592,0,0,1-14.772-12.071L1837.451,1087.7c-1.172-7.065,3.541-13.123,10.527-13.525l106.1-6.1A14.6,14.6,0,0,1,1968.845,1080.15Z" transform="translate(-1830.158 -1068.058)" fill="#f8c703"/>
      <path id="Path_568" data-name="Path 568" d="M1968.845,1080.15l.407,2.452c-2.761,72.822-66.889,115.943-109.96,136.787L1837.451,1087.7c-1.172-7.065,3.541-13.123,10.527-13.525l106.1-6.1A14.6,14.6,0,0,1,1968.845,1080.15Z" transform="translate(-1830.158 -1068.058)" fill="#fc0"/>
      <path id="Path_569" data-name="Path 569" d="M1981.549,1100.621l25.709,155.016a9.751,9.751,0,0,1-9.109,11.7l-93.377,5.365a12.628,12.628,0,0,1-12.785-10.445l-25.709-155.016a9.754,9.754,0,0,1,9.112-11.7l93.377-5.365A12.628,12.628,0,0,1,1981.549,1100.621Z" transform="translate(-1850.146 -1083.369)" fill="#d8e3ff"/>
      <path id="Path_570" data-name="Path 570" d="M1981.549,1100.621l3.885,23.426c-24.233,81.586-98.685,106.628-98.685,106.628l-20.471-123.43a9.754,9.754,0,0,1,9.112-11.7l93.377-5.365A12.628,12.628,0,0,1,1981.549,1100.621Z" transform="translate(-1850.146 -1083.369)" fill="#e3eeff"/>
    </g>
    <g id="Group_3167" data-name="Group 3167" transform="translate(154.791 189.642)">
      <g id="Group_3158" data-name="Group 3158" transform="translate(40.595 133.247)">
        <path id="Path_588" data-name="Path 588" d="M2319.786,1582.7c0,25.293-17.744,55-45.936,55-17.469,0-31.846-10.7-40.25-24.995a57.52,57.52,0,0,1-8.083-28.773c0-25.912,28.281-24.677,46.2-24.677,19.657,0,42.99-1.506,47.342,16.8A28.32,28.32,0,0,1,2319.786,1582.7Z" transform="translate(-2225.517 -1559.223)" fill="#fc0"/>
        <path id="Path_589" data-name="Path 589" d="M2338.013,1620.649c0,25.293-17.744,55-45.936,55-17.47,0-31.846-10.7-40.25-24.995,17.508,8.241,67.381,25.312,85.463-36.65A28.318,28.318,0,0,1,2338.013,1620.649Z" transform="translate(-2243.744 -1597.177)" fill="#fc0"/>
        <path id="Path_590" data-name="Path 590" d="M2301.152,1579.107c-3.662,5.971-1.072,14.469,5.216,17.805,6.646,3.526,15.689.365,18.161-6.644,2.348-6.658-2.176-14.121-8.658-16.214C2310.673,1572.375,2304.2,1574.142,2301.152,1579.107Z" transform="translate(-2276.753 -1569.07)" fill="#fc0"/>
      </g>
      <g id="Group_3159" data-name="Group 3159" transform="translate(0 114.569)">
        <path id="Path_591" data-name="Path 591" d="M2132.7,1543.573c13.427,2.035,22.137.359,19.456-9.264a27.882,27.882,0,0,0-2.421-5.683c-3.911-7.181-52.115-43.967-55.989-24.668a21.523,21.523,0,0,0,2.473,14.442C2103.126,1531.486,2121.034,1541.808,2132.7,1543.573Z" transform="translate(-2093.376 -1498.422)" fill="#fc0"/>
        <path id="Path_592" data-name="Path 592" d="M2139.123,1588.628c13.426,2.035,22.136.359,19.456-9.263-7.576,1.624-24.333,1.292-55.937-15.909C2109.545,1576.54,2127.453,1586.862,2139.123,1588.628Z" transform="translate(-2099.794 -1543.477)" fill="#fc0"/>
        <path id="Path_593" data-name="Path 593" d="M2146.473,1526.824c7.676,5.05,21.194,12.94,22.176,11.531.885-1.271-8.307-10.28-19.708-16.264-6.351-3.333-14.051-6.075-14.618-5.028C2133.616,1518.365,2144.085,1525.253,2146.473,1526.824Z" transform="translate(-2121.72 -1511.179)" fill="#fc0"/>
      </g>
      <g id="Group_3166" data-name="Group 3166" transform="translate(35.753 0)">
        <path id="Path_594" data-name="Path 594" d="M2315.685,1293.483c-1.808,25.06-59.264,33.34-86.14,18.193-7.467-4.208-12.573-10.227-13.471-18.193-4.13-36.643,20.129-70.192,48-70.192,10.1,0,21.968,3.867,31.792,12.434C2308.458,1246.691,2317.717,1265.365,2315.685,1293.483Z" transform="translate(-2213.814 -1193.244)" fill="#fc0"/>
        <path id="Path_595" data-name="Path 595" d="M2259.333,1443.415a9.121,9.121,0,0,1-5.143-4.135c-1.8-3.072-1.583-6.488-.748-6.293,1.3.306,3.268,4.386,6.674,5.5,3.913,1.275,7.442-.381,9.483.184.092.024.179.051.267.079C2271.908,1439.412,2267.021,1445.92,2259.333,1443.415Z" transform="translate(-2239.588 -1338.515)" fill="#2d2d2d"/>
        <path id="Path_596" data-name="Path 596" d="M2347.1,1321.522c-1.808,25.06-59.264,33.341-86.14,18.193,16.421,2.725,65.3,8.71,74.1-14.841,7.564-20.253-1.788-47.276-7.777-61.111C2339.875,1274.73,2349.135,1293.4,2347.1,1321.522Z" transform="translate(-2245.232 -1221.283)" fill="#fc0"/>
        <g id="Group_3160" data-name="Group 3160" transform="translate(0 52.472)">
          <path id="Path_597" data-name="Path 597" d="M2272.187,1325.7c-1.05,4.918-6.493,6.922-13.059,7.4-6.916.506-15.079-.68-20.67-1.937-8-1.8-23.139-6.672-27.5-13.584a6.809,6.809,0,0,1-1.06-5.182c1.138-5.326,3.882-10.763,7.817-13.576s9.058-2.991,13.924-1.952l27.045,5.777a17.484,17.484,0,0,1,12.322,10.426A20.861,20.861,0,0,1,2272.187,1325.7Z" transform="translate(-2209.758 -1296.288)" fill="#2d2d2d"/>
          <path id="Path_598" data-name="Path 598" d="M2274.9,1363.553c-1.051,4.917-6.494,6.922-13.059,7.4-6.917.506-15.079-.679-20.67-1.937-8-1.8-23.14-6.672-27.5-13.584,16,2.856,43.638,5.691,60.049-4.507A20.865,20.865,0,0,1,2274.9,1363.553Z" transform="translate(-2212.47 -1334.14)" fill="#2d2d2d"/>
          <path id="Path_599" data-name="Path 599" d="M2295.751,1309.387c-.049.6-3.883,1.236-7.628.833-6.076-.653-11.071-3.935-10.832-4.659.109-.333,3.876.429,11.406,1.967C2294.749,1308.764,2295.778,1309.068,2295.751,1309.387Z" transform="translate(-2256.539 -1302.659)" fill="#2d2d2d"/>
        </g>
        <g id="Group_3162" data-name="Group 3162" transform="translate(4.008 56.182)">
          <g id="Group_3161" data-name="Group 3161">
            <path id="Path_600" data-name="Path 600" d="M2244.273,1321.616a8.22,8.22,0,1,1-.721-3.36A8.213,8.213,0,0,1,2244.273,1321.616Z" transform="translate(-2226.296 -1311.855)" fill="#f5c504"/>
            <path id="Path_601" data-name="Path 601" d="M2232.567,1309.911a8.216,8.216,0,1,1-8.215,8.213,8.207,8.207,0,0,1,8.215-8.213Zm0-1.548a9.761,9.761,0,1,0,9.761,9.761,9.643,9.643,0,0,0-.858-4,9.766,9.766,0,0,0-8.9-5.764Z" transform="translate(-2222.804 -1308.363)" fill="#fbefc2"/>
          </g>
          <path id="Path_602" data-name="Path 602" d="M2243.567,1318.245c-3.066,7.412-10.675,7.183-15.148,6.321a8.21,8.21,0,0,1,15.148-6.321Z" transform="translate(-2226.314 -1311.852)" fill="#fc0"/>
          <circle id="Ellipse_32" data-name="Ellipse 32" cx="2.727" cy="2.727" r="2.727" transform="matrix(0.23, -0.973, 0.973, 0.23, 3.398, 9.062)" fill="#fff"/>
          <path id="Path_603" data-name="Path 603" d="M2261.005,1345.272c.446.3-.161,3.161-2.194,4.255-1.806.973-4.2.26-4.255-.266-.041-.387,1.2-.493,3.274-1.749C2260.014,1346.19,2260.695,1345.063,2261.005,1345.272Z" transform="translate(-2244.801 -1333.916)" fill="#fff"/>
        </g>
        <g id="Group_3164" data-name="Group 3164" transform="translate(34.933 64.395)">
          <g id="Group_3163" data-name="Group 3163">
            <path id="Path_604" data-name="Path 604" d="M2344.939,1348.352a8.22,8.22,0,1,1-.721-3.36A8.213,8.213,0,0,1,2344.939,1348.352Z" transform="translate(-2326.962 -1338.591)" fill="#f1c103"/>
            <path id="Path_605" data-name="Path 605" d="M2333.232,1336.647a8.217,8.217,0,1,1-8.214,8.213,8.207,8.207,0,0,1,8.214-8.213Zm0-1.548a9.761,9.761,0,1,0,9.762,9.761,9.645,9.645,0,0,0-.859-4,9.767,9.767,0,0,0-8.9-5.764Z" transform="translate(-2323.469 -1335.099)" fill="#fbefc2"/>
          </g>
          <path id="Path_606" data-name="Path 606" d="M2344.228,1344.974c-3.066,7.412-10.671,7.191-15.144,6.33a8.21,8.21,0,0,1,15.144-6.33Z" transform="translate(-2326.979 -1338.589)" fill="#fc0"/>
          <circle id="Ellipse_33" data-name="Ellipse 33" cx="2.727" cy="2.727" r="2.727" transform="matrix(0.23, -0.973, 0.973, 0.23, 3.398, 9.062)" fill="#fff"/>
          <path id="Path_607" data-name="Path 607" d="M2361.671,1372.009c.446.3-.161,3.161-2.194,4.255-1.806.973-4.2.261-4.255-.266-.041-.387,1.2-.493,3.274-1.749C2360.68,1372.927,2361.361,1371.8,2361.671,1372.009Z" transform="translate(-2345.467 -1360.652)" fill="#fff"/>
        </g>
        <g id="Group_3165" data-name="Group 3165" transform="translate(54.766 0)">
          <path id="Path_608" data-name="Path 608" d="M2388.163,1180.332a26.029,26.029,0,0,1,1.86-12.455c2.453-6.182,8.4-14.659,22.814-19.935l.932,2.545c-10.753,3.936-17.877,10.078-21.174,18.256a23.831,23.831,0,0,0-1.753,11.186Z" transform="translate(-2388.029 -1141.043)" fill="#fc0"/>
          <circle id="Ellipse_34" data-name="Ellipse 34" cx="6.308" cy="6.308" r="6.308" transform="matrix(0.143, -0.99, 0.99, 0.143, 21.229, 12.488)" fill="#fc0"/>
          <circle id="Ellipse_35" data-name="Ellipse 35" cx="3.385" cy="3.385" r="3.385" transform="translate(25.684 2.157) rotate(-2.111)" fill="#eec008"/>
        </g>
        <path id="Path_609" data-name="Path 609" d="M2341.2,1241.184c.89,5.357-8.912,12.513-18.318,13.383-8.353.773-18.546-3.212-19.073-8.337-.558-5.433,9.791-11.708,19.073-12.387C2330.433,1233.292,2340.377,1236.215,2341.2,1241.184Z" transform="translate(-2274.903 -1200.509)" fill="#f5c60a"/>
      </g>
    </g>
    <ellipse id="Ellipse_36" data-name="Ellipse 36" cx="48.975" cy="12.698" rx="48.975" ry="12.698" transform="translate(192.845 408.847)" fill="#f1f1f1"/>
    <g id="Group_3170" data-name="Group 3170" transform="translate(-31 2.35)">
      <ellipse id="Ellipse_8" data-name="Ellipse 8" cx="31.054" cy="32.693" rx="31.054" ry="32.693" transform="translate(133.404 231.773) rotate(-45.74)" fill="#fff" opacity="0.3"/>
      <g id="Group_3158-2" data-name="Group 3158">
        <path id="Path_2343" data-name="Path 2343" d="M215.881,193.751a24.214,24.214,0,0,1-21.971,13.5,27.388,27.388,0,0,1-23.36-13.5,38.956,38.956,0,0,1,22.307-6.9A42.389,42.389,0,0,1,215.881,193.751Z" transform="translate(-14.085 50.886)" fill="#291f3b"/>
        <path id="Path_6830" data-name="Path 6830" d="M11.188,0c6.179,0,11.188,5.276,11.188,11.783S17.367,23.567,11.188,23.567,0,18.291,0,11.783,5.009,0,11.188,0Z" transform="translate(161.796 223.32) rotate(-45.74)" fill="#291f3b"/>
      </g>
    </g>
  </g>
</svg>
