<svg xmlns="http://www.w3.org/2000/svg" width="404.263" height="373.436" viewBox="0 0 404.263 373.436">
  <g id="Group_3219" data-name="Group 3219" transform="translate(-11.868 -76)">
    <path id="Icon_material-slow-motion-video" data-name="Icon material-slow-motion-video" d="M65.551,47.035,48.228,34.029V85.145L65.551,72.139,82.306,59.587Zm0,0L48.228,34.029V85.145L65.551,72.139,82.306,59.587Zm0,0L48.228,34.029V85.145L65.551,72.139,82.306,59.587ZM53.908,14.548V3.075A56.505,56.505,0,0,0,23.692,15.627l8.065,8.122a45.1,45.1,0,0,1,22.15-9.2ZM23.749,31.757l-8.122-8.065A56.505,56.505,0,0,0,3.075,53.908H14.548A45.1,45.1,0,0,1,23.749,31.757Zm-9.2,33.51H3.075A56.505,56.505,0,0,0,15.627,95.482l8.122-8.122a44.687,44.687,0,0,1-9.2-22.094Zm9.144,38.281A56.69,56.69,0,0,0,53.908,116.1V104.626a45.1,45.1,0,0,1-22.15-9.2l-8.065,8.122Zm92.691-43.96A56.881,56.881,0,0,1,65.551,116.1V104.626a45.432,45.432,0,0,0,0-90.079V3.075A56.881,56.881,0,0,1,116.383,59.587Z" transform="translate(154.271 72.925)" fill="rgba(255,204,0,0.19)"/>
    <g id="Group_664" data-name="Group 664" transform="translate(-175.663 -72.959)">
      <g id="Group_482" data-name="Group 482" transform="translate(486.234 303.109)">
        <g id="Group_429" data-name="Group 429" transform="translate(35.957 20.207)">
          <path id="Path_274" data-name="Path 274" d="M2051.99,648.755s4.6-1.84,5.322-4.4,2.432-1.774,3.417-2.432-1.774-7.622-1.774-7.622l-9.528-3.483.985,12.222Z" transform="translate(-2049.427 -630.816)" fill="#436e8e"/>
        </g>
        <g id="Group_436" data-name="Group 436" transform="translate(0 135.128)">
          <g id="Group_430" data-name="Group 430" transform="translate(4.687 10.723)">
            <path id="Path_275" data-name="Path 275" d="M1900.1,1236.393h0a1.787,1.787,0,0,0-1.325,2.145l3.5,14.809a1.788,1.788,0,0,0,2.145,1.325h0a1.788,1.788,0,0,0,1.325-2.145l-3.5-14.808A1.788,1.788,0,0,0,1900.1,1236.393Z" transform="translate(-1898.725 -1236.345)" fill="#f7b686"/>
          </g>
          <g id="Group_431" data-name="Group 431" transform="translate(9.16 9.556)">
            <path id="Path_276" data-name="Path 276" d="M1922.1,1230.771l-.326.077a1.948,1.948,0,0,0-1.443,2.337l3.841,16.251a1.947,1.947,0,0,0,2.336,1.443l.326-.077a1.947,1.947,0,0,0,1.443-2.336l-3.841-16.251A1.948,1.948,0,0,0,1922.1,1230.771Z" transform="translate(-1920.282 -1230.719)" fill="#f7b686"/>
          </g>
          <g id="Group_432" data-name="Group 432" transform="translate(8.806)">
            <path id="Path_277" data-name="Path 277" d="M1919.425,1185.485l-.392.5a2.161,2.161,0,0,0,.361,3.026l9.075,7.14a2.162,2.162,0,0,0,3.026-.361l.392-.5a2.161,2.161,0,0,0-.361-3.026l-9.075-7.14A2.162,2.162,0,0,0,1919.425,1185.485Z" transform="translate(-1918.574 -1184.665)" fill="#f7b686"/>
          </g>
          <g id="Group_433" data-name="Group 433" transform="translate(13.568 8.625)">
            <path id="Path_278" data-name="Path 278" d="M1942.9,1226.278h0a1.787,1.787,0,0,0-1.325,2.144l3.137,13.276a1.788,1.788,0,0,0,2.144,1.325h0a1.788,1.788,0,0,0,1.325-2.145l-3.137-13.275A1.788,1.788,0,0,0,1942.9,1226.278Z" transform="translate(-1941.528 -1226.23)" fill="#f7b686"/>
          </g>
          <g id="Group_434" data-name="Group 434" transform="translate(0 3.049)">
            <path id="Path_279" data-name="Path 279" d="M1877.189,1199.36s-3,9.735,1.128,15.68c1.429,2.057,14.417-1.391,15.034-4.129s-2.376-11.5-2.376-11.5Z" transform="translate(-1876.137 -1199.36)" fill="#f7b686"/>
          </g>
          <g id="Group_435" data-name="Group 435" transform="translate(0.276 11.753)">
            <path id="Path_280" data-name="Path 280" d="M1878.838,1241.353h0a1.785,1.785,0,0,0-1.322,2.14l3.131,13.248a1.784,1.784,0,0,0,2.14,1.322h0a1.785,1.785,0,0,0,1.322-2.14l-3.131-13.248A1.785,1.785,0,0,0,1878.838,1241.353Z" transform="translate(-1877.469 -1241.306)" fill="#f7b686"/>
          </g>
        </g>
        <g id="Group_438" data-name="Group 438" transform="translate(0.767 48.398)">
          <g id="Group_437" data-name="Group 437">
            <path id="Path_281" data-name="Path 281" d="M1896.721,858.52c1.8-19.8,5.924-48.106,15.367-70.523a67.82,67.82,0,0,1,4.806-9.981c1.373-2.282-1.085-7.3-4.964-9.691-3.64-2.244-9.309-1.877-10.205-.766-1.525,1.89-3.152,5.51-5.685,11.26-8.8,19.975-14.071,45.779-16.206,79.048Z" transform="translate(-1879.833 -766.679)" fill="#f7b686"/>
          </g>
        </g>
        <g id="Group_439" data-name="Group 439" transform="translate(13.258 111.913)">
          <path id="Path_282" data-name="Path 282" d="M1987.029,1179.764c-12.8.44-27.823.517-43.417.208-.307-10.728-.635-22.24-1.172-34.031q-.493-10.827-.861-20.18-.27-6.83-.482-12.836v0q-.033-.96-.066-1.9v0q-.029-.884-.062-1.749v0q-.069-2.1-.134-4.093-.023-.7-.046-1.38-.046-1.449-.087-2.833-.03-.95-.057-1.867c-.02-.592-.037-1.172-.052-1.746v0q-.18-6.078-.289-10.708-.039-1.627-.072-3.065-.013-.595-.027-1.157c-.137-6.333-.173-9.635-.173-9.635l7.844,1.514,21.09,4.071,9.178,1.77.2,3.755.026.484.206,3.859,0,.077.339,6.319.013.245,1.128,21.068,1.832,20.63.421,4.72v0l.894,10.079.094,1.045,1.766,19.88v0l0,.059,0,.009.921,3.488Z" transform="translate(-1940.031 -1072.785)" fill="#96a7e2"/>
        </g>
        <g id="Group_440" data-name="Group 440" transform="translate(10.617 120.758)">
          <path id="Path_283" data-name="Path 283" d="M2000.117,1127.718c-.354,2.925-16.894,2.57-37.146.007s-36.015-6.951-35.662-9.876,16.691-3.28,36.943-.717S2000.471,1124.793,2000.117,1127.718Z" transform="translate(-1927.303 -1115.412)" fill="#2f1a31"/>
        </g>
        <g id="Group_441" data-name="Group 441" transform="translate(36.497 126.826)">
          <path id="Path_284" data-name="Path 284" d="M2114.317,1233.611q-3.81.618-7.73,1.017c-5.669.576-11.36,1.045-17.175,1.415h0c-4.452.283-8.979.508-13.622.679l-.9-3.422-.96-3.633-.088-.333,0-.009-4.558-17.234-1.163-4.4-.521-1.974-3.009-11.377-5.383-20.362v0l-4.751-17.967-.53-2.005-1.168-4.415-.708-2.68c-.179-1.291,1.427-1.948,4.118-2.167a62.176,62.176,0,0,1,11.181.532c1.2.138,2.428.3,3.67.473a.22.22,0,0,0,.037,0c3.9.55,7.924,1.249,11.554,1.957a.424.424,0,0,0,.073.013c1.2.232,2.358.467,3.453.7,3.37.708,6.159,1.379,7.826,1.859a4.25,4.25,0,0,1,2.426,1.842c.048.079.094.158.136.239a4.291,4.291,0,0,1,.423,1.135l2.636,12.152.5,2.327v0l.281,1.286,3.111,14.346.232,1.067.246,1.135,3.823,17.622.252,1.168Z" transform="translate(-2052.028 -1144.656)" fill="#96a7e2"/>
        </g>
        <g id="Group_442" data-name="Group 442" transform="translate(10.623 37.627)">
          <path id="Path_285" data-name="Path 285" d="M1999.328,730.962s-11.7-16.907-32.2-16.171-35.967,27.666-39.8,85.545c0,0,33.557-7.358,72.868,9.808C2000.2,810.144,2008.329,754.553,1999.328,730.962Z" transform="translate(-1927.331 -714.768)" fill="#fc0"/>
        </g>
        <g id="Group_443" data-name="Group 443" transform="translate(17.869 37.573)">
          <path id="Path_286" data-name="Path 286" d="M2038.649,723.434l-17.722,14.919s-37.318,3.734-47.224,1.936-11.449-9.081-11.449-9.081a46.015,46.015,0,0,1,27.358-16.137,49.049,49.049,0,0,1,5.195-.484c3.042-.216,5.085.086,8.084.062C2030.771,714.426,2038.649,723.434,2038.649,723.434Z" transform="translate(-1962.254 -714.509)" fill="#fc0"/>
        </g>
        <g id="Group_444" data-name="Group 444" transform="translate(34.426 147.323)">
          <path id="Path_287" data-name="Path 287" d="M2067.525,1315.093l-13.371-56.1a26.8,26.8,0,0,0-12.1-14.923l.362-.631a27.528,27.528,0,0,1,12.439,15.341l.008.03,13.375,56.114Z" transform="translate(-2042.049 -1243.44)" fill="#020202"/>
        </g>
        <g id="Group_445" data-name="Group 445" transform="translate(44.391 16.655)">
          <path id="Path_288" data-name="Path 288" d="M2104.157,634.751a5.667,5.667,0,0,1-4.618-3.379l-2.54-5.9-.737-1.712-4.334-10.066.751,10.431.452,6.261.129,1.785a2.849,2.849,0,0,1-2.35,3l-.025,0c-.771,1.254-1.836,3.8,1.346,4.816,3.739,1.19,9.788-1.754,11.958-5.242Z" transform="translate(-2090.074 -613.696)" fill="#f7b686"/>
        </g>
        <g id="Group_446" data-name="Group 446" transform="translate(46.997 26.524)">
          <path id="Path_289" data-name="Path 289" d="M2106.962,663c0,.057-.006.115-.011.173-.249,3.362-3.845,4.933-3.845,4.933l-.022-.018-.451-6.261c1.1-.4,2.665-.817,3.582-.366A1.469,1.469,0,0,1,2106.962,663Z" transform="translate(-2102.632 -661.26)" fill="#2f1a31"/>
        </g>
        <g id="Group_447" data-name="Group 447" transform="translate(35.971 6.232)">
          <path id="Path_290" data-name="Path 290" d="M2049.5,575.556c0-6.677,4.388-12.091,9.8-12.091s9.8,5.414,9.8,12.091-4.387,12.091-9.8,12.091S2049.5,582.234,2049.5,575.556Z" transform="translate(-2049.497 -563.465)" fill="#f7b686"/>
        </g>
        <g id="Group_449" data-name="Group 449" transform="translate(44.659 17.787)">
          <g id="Group_448" data-name="Group 448">
            <path id="Path_291" data-name="Path 291" d="M2091.532,619.808a.223.223,0,0,1-.025-.422,2.414,2.414,0,0,1,2.886.643.224.224,0,0,1-.008.315.244.244,0,0,1-.315-.008,3.815,3.815,0,0,0-2.4-.537A.222.222,0,0,1,2091.532,619.808Z" transform="translate(-2091.367 -619.156)" fill="#060633"/>
          </g>
        </g>
        <g id="Group_451" data-name="Group 451" transform="translate(44.674 20.522)">
          <g id="Group_450" data-name="Group 450">
            <path id="Path_292" data-name="Path 292" d="M2094.3,632.336a.22.22,0,0,1,.188.066.223.223,0,0,1,0,.315,2.415,2.415,0,0,1-2.914.5.225.225,0,0,1-.112-.295.245.245,0,0,1,.295-.113,3.821,3.821,0,0,0,2.421-.414A.221.221,0,0,1,2094.3,632.336Z" transform="translate(-2091.439 -632.335)" fill="#060633"/>
          </g>
        </g>
        <g id="Group_453" data-name="Group 453" transform="translate(44.716 25.509)">
          <g id="Group_452" data-name="Group 452">
            <path id="Path_293" data-name="Path 293" d="M2091.889,657.5a.223.223,0,0,1-.176-.384,2.414,2.414,0,0,1,2.924-.442.225.225,0,0,1,.107.3.245.245,0,0,1-.3.106,3.823,3.823,0,0,0-2.429.365A.219.219,0,0,1,2091.889,657.5Z" transform="translate(-2091.643 -656.369)" fill="#060633"/>
          </g>
        </g>
        <g id="Group_455" data-name="Group 455" transform="translate(37.626 21.104)">
          <g id="Group_454" data-name="Group 454">
            <path id="Path_294" data-name="Path 294" d="M2060.334,635.142a.223.223,0,0,1,.183.381,2.413,2.413,0,0,1-2.914.5.224.224,0,0,1-.113-.295.245.245,0,0,1,.295-.112,3.814,3.814,0,0,0,2.42-.415A.227.227,0,0,1,2060.334,635.142Z" transform="translate(-2057.471 -635.14)" fill="#060633"/>
          </g>
        </g>
        <g id="Group_456" data-name="Group 456" transform="translate(75.668 45.607)">
          <path id="Path_295" data-name="Path 295" d="M2259.409,754.119c1.486,2.13-1.536,5.006-7.726,9.483s-8.888,6.065-10.374,3.935.285-5.754,6.437-10.283C2252.261,753.931,2257.923,751.989,2259.409,754.119Z" transform="translate(-2240.813 -753.227)" fill="#d4aa06"/>
        </g>
        <g id="Group_458" data-name="Group 458" transform="translate(46.272 47.391)">
          <g id="Group_457" data-name="Group 457">
            <path id="Path_296" data-name="Path 296" d="M2104.874,802.2c9.5,5.033,28.059,1.609,31.43-3.513,3.922-5.957.574-15.022-3.58-21.277-2.126-3.2-2.355-6.31,1-10.224,1.395-1.626,2.762-2.756,7.218-4.616,2.153-.9,4.3-1.186,5.5.361a57.792,57.792,0,0,1,5.848,9.245c6.211,11.482,7.544,22.661,4.732,31.276-3.947,12.091-19.867,28.029-57.538,14.772C2097.7,817.591,2103.322,801.374,2104.874,802.2Z" transform="translate(-2099.14 -761.829)" fill="#f7b686"/>
          </g>
        </g>
        <g id="Group_459" data-name="Group 459" transform="translate(13.624 124.838)">
          <path id="Path_297" data-name="Path 297" d="M1995.319,1140.131s-40.419-7.721-53.524-4.079l6.284,9.313,23.362,1.322Z" transform="translate(-1941.795 -1135.076)" fill="#96a7e2"/>
        </g>
        <g id="Group_460" data-name="Group 460" transform="translate(30.732)">
          <path id="Path_298" data-name="Path 298" d="M2044.042,544.011a17.178,17.178,0,0,0-13.055,16.212q-.021.671-.021,1.379s5.068,1.124,5.339,6.1c.085,1.558-4.417,4.213-4.731,4.074-2.36-1.051-8.52-6.8-7.124-18.2s5.818-19.781,16.29-20.13,9.076,6.632,9.076,6.632A9.813,9.813,0,0,1,2044.042,544.011Z" transform="translate(-2024.247 -533.431)" fill="#436e8e"/>
        </g>
        <g id="Group_461" data-name="Group 461" transform="translate(49.058 5.888)">
          <path id="Path_299" data-name="Path 299" d="M2112.568,566.523s.178.115.465.337a11.22,11.22,0,0,1,4.335,6.993c.611,4.625-3.84,7.505-2.618,11.083s4.451-.436,7.069.174,4.538-.611,4.713-5.847-1.048-17.454-7.244-17.454Z" transform="translate(-2112.568 -561.81)" fill="#436e8e"/>
        </g>
        <g id="Group_462" data-name="Group 462" transform="translate(51.449 15.921)">
          <path id="Path_300" data-name="Path 300" d="M2128.028,614.388c-1.11,1.06-2.662,1.169-3.467.243a2.694,2.694,0,0,1,.553-3.6c1.11-1.06,2.663-1.169,3.467-.243A2.7,2.7,0,0,1,2128.028,614.388Z" transform="translate(-2124.088 -610.163)" fill="#f7b686"/>
        </g>
        <g id="Group_463" data-name="Group 463" transform="translate(34.781 8.393)">
          <path id="Path_301" data-name="Path 301" d="M2043.879,597.99c-.722-7.549,2-14.871,5.009-18.778a13.374,13.374,0,0,1,6.672-4.954,7.381,7.381,0,0,1,3.122-.33l-.025.143c-.049-.009-5.009-.794-9.655,5.229-3,3.885-5.7,11.166-4.979,18.676Z" transform="translate(-2043.761 -573.882)" fill="#2f1a31"/>
        </g>
        <g id="Group_464" data-name="Group 464" transform="translate(52.433 7.479)">
          <path id="Path_302" data-name="Path 302" d="M2134.859,587.057l-.131-.062c2.326-4.884,1.143-13.343-.806-15.866-1.921-2.486-5-1.156-5.033-1.142l-.059-.133c.032-.015,3.216-1.39,5.207,1.186C2136.006,573.59,2137.206,582.13,2134.859,587.057Z" transform="translate(-2128.83 -569.475)" fill="#2f1a31"/>
        </g>
        <g id="Group_465" data-name="Group 465" transform="translate(34.238 5.529)">
          <path id="Path_303" data-name="Path 303" d="M2041.286,577.722l-.145-.008c.008-.142.883-14.269,6.56-16.7a10.732,10.732,0,0,1,7.131-.571,9.2,9.2,0,0,1,2.832,1.278l-.087.116a10.287,10.287,0,0,0-9.819-.69C2042.163,563.543,2041.294,577.581,2041.286,577.722Z" transform="translate(-2041.141 -560.079)" fill="#2f1a31"/>
        </g>
        <g id="Group_471" data-name="Group 471" transform="translate(36.479 34.507)">
          <g id="Group_466" data-name="Group 466" transform="translate(2.039 24.832)">
            <path id="Path_304" data-name="Path 304" d="M2062.327,853.26h0a.762.762,0,0,1-.534-.932l8.8-32.357a.762.762,0,0,1,.933-.534h0a.761.761,0,0,1,.533.933l-8.8,32.356A.763.763,0,0,1,2062.327,853.26Z" transform="translate(-2061.767 -819.411)" fill="#2f1a31"/>
          </g>
          <g id="Group_467" data-name="Group 467">
            <path id="Path_305" data-name="Path 305" d="M2079.8,719.407c-2.259,8.3-10.192,13.377-17.72,11.33s-11.8-10.439-9.539-18.744,5.206-14.733,17.719-11.329C2083.208,704.184,2082.063,711.1,2079.8,719.407Z" transform="translate(-2051.941 -699.734)" fill="#fff"/>
          </g>
          <g id="Group_468" data-name="Group 468" transform="translate(8.217 10.872)">
            <path id="Path_306" data-name="Path 306" d="M2093.78,754.066c-.243.894-.921,1.488-1.515,1.326s-.877-1.017-.634-1.911.921-1.488,1.515-1.327S2094.023,753.172,2093.78,754.066Z" transform="translate(-2091.544 -752.129)" fill="#fc0"/>
          </g>
          <g id="Group_469" data-name="Group 469" transform="translate(18.645 13.708)">
            <path id="Path_307" data-name="Path 307" d="M2144.034,767.736c-.243.894-.921,1.488-1.515,1.326s-.878-1.017-.634-1.911.921-1.488,1.515-1.326S2144.277,766.841,2144.034,767.736Z" transform="translate(-2141.797 -765.798)" fill="#fc0"/>
          </g>
          <g id="Group_470" data-name="Group 470" transform="translate(6.434 18.688)">
            <path id="Path_308" data-name="Path 308" d="M2082.978,789.8a14.77,14.77,0,0,0,12.763,3.362s-1.594,5.547-8.008,3.8C2082.3,795.483,2082.978,789.8,2082.978,789.8Z" transform="translate(-2082.951 -789.797)" fill="#fc0"/>
          </g>
        </g>
        <g id="Group_477" data-name="Group 477" transform="translate(32.537 75.191)">
          <g id="Group_473" data-name="Group 473">
            <g id="Group_472" data-name="Group 472">
              <path id="Path_309" data-name="Path 309" d="M2052.415,908.375s-1.491-8.1-5.611-10.6-11.272-2.578-9.048-.486a31.787,31.787,0,0,0,5.806,3.979s-7.84-3.673-7.905-1.467,6.785,5.335,6.785,5.335-9.678-3.627-9.065-1.524,7.985,4.807,7.985,4.807-9.139-3.015-8.369-.589,7.569,2.443,7.5,4.648.423,10.988,6.532,11.917Z" transform="translate(-2032.946 -895.807)" fill="#f7b686"/>
            </g>
          </g>
          <g id="Group_474" data-name="Group 474" transform="translate(10.274 5.123)">
            <path id="Path_310" data-name="Path 310" d="M2085.644,923.328a.342.342,0,0,1-.326-.239c-.4-1.248-2.592-1.917-2.613-1.924a.342.342,0,1,1,.195-.655c.1.031,2.565.78,3.071,2.373a.342.342,0,0,1-.223.429A.332.332,0,0,1,2085.644,923.328Z" transform="translate(-2082.461 -920.496)" fill="#e08b65"/>
          </g>
          <g id="Group_475" data-name="Group 475" transform="translate(9.153 8.989)">
            <path id="Path_311" data-name="Path 311" d="M2080.8,942.38a.342.342,0,0,1-.3-.177,5.81,5.81,0,0,0-3.185-2.4.342.342,0,0,1,.182-.659,6.433,6.433,0,0,1,3.6,2.729.341.341,0,0,1-.134.465A.336.336,0,0,1,2080.8,942.38Z" transform="translate(-2077.06 -939.131)" fill="#e08b65"/>
          </g>
          <g id="Group_476" data-name="Group 476" transform="translate(8.074 12.273)">
            <path id="Path_312" data-name="Path 312" d="M2075.385,958.049a.341.341,0,0,1-.333-.266c-.255-1.126-2.217-1.939-2.951-2.157a.342.342,0,0,1,.194-.656c.124.036,3.028.915,3.424,2.662a.342.342,0,0,1-.334.417Z" transform="translate(-2071.856 -954.956)" fill="#e08b65"/>
          </g>
        </g>
        <g id="Group_479" data-name="Group 479" transform="translate(55.324 44.792)">
          <g id="Group_478" data-name="Group 478">
            <path id="Path_313" data-name="Path 313" d="M2142.99,750.19a.3.3,0,0,1-.034-.574,3.283,3.283,0,0,1,3.924.875.306.306,0,0,1-.011.429.333.333,0,0,1-.428-.011,5.192,5.192,0,0,0-3.259-.73A.3.3,0,0,1,2142.99,750.19Z" transform="translate(-2142.766 -749.304)" fill="#fc0"/>
          </g>
        </g>
        <g id="Group_481" data-name="Group 481" transform="translate(45.456 41.937)">
          <g id="Group_480" data-name="Group 480">
            <path id="Path_314" data-name="Path 314" d="M2095.389,736.242a.3.3,0,0,1,.055-.573,3.283,3.283,0,0,1,3.743,1.468.306.306,0,0,1-.076.422.334.334,0,0,1-.423-.077,5.187,5.187,0,0,0-3.108-1.222A.3.3,0,0,1,2095.389,736.242Z" transform="translate(-2095.209 -735.54)" fill="#fc0"/>
          </g>
        </g>
      </g>
      <g id="Group_541" data-name="Group 541" transform="translate(398.063 291.588)">
        <g id="Group_492" data-name="Group 492" transform="translate(0.08 134.087)">
          <g id="Group_486" data-name="Group 486" transform="translate(4.472 10.161)">
            <path id="Path_318" data-name="Path 318" d="M1474.313,1173.165h0a1.651,1.651,0,0,0-1.1,2.052l4.06,13.453a1.651,1.651,0,0,0,2.052,1.1h0a1.652,1.652,0,0,0,1.1-2.052l-4.06-13.453A1.651,1.651,0,0,0,1474.313,1173.165Z" transform="translate(-1473.143 -1173.095)" fill="#f7b686"/>
          </g>
          <g id="Group_487" data-name="Group 487" transform="translate(8.507 8.943)">
            <path id="Path_319" data-name="Path 319" d="M1493.756,1167.3h0a1.651,1.651,0,0,0-1.1,2.051l4.54,15.045a1.651,1.651,0,0,0,2.052,1.1h0a1.651,1.651,0,0,0,1.1-2.051l-4.54-15.046A1.651,1.651,0,0,0,1493.756,1167.3Z" transform="translate(-1492.586 -1167.228)" fill="#f7b686"/>
          </g>
          <g id="Group_488" data-name="Group 488" transform="translate(7.713)">
            <path id="Path_320" data-name="Path 320" d="M1489.446,1124.983l-.334.482a2,2,0,0,0,.5,2.77l8.767,6.07a2,2,0,0,0,2.769-.5l.334-.482a2,2,0,0,0-.5-2.769l-8.767-6.07A2,2,0,0,0,1489.446,1124.983Z" transform="translate(-1488.761 -1124.127)" fill="#f7b686"/>
          </g>
          <g id="Group_489" data-name="Group 489" transform="translate(12.541 7.726)">
            <path id="Path_321" data-name="Path 321" d="M1513.2,1161.43h0a1.651,1.651,0,0,0-1.1,2.051l3.64,12.061a1.65,1.65,0,0,0,2.051,1.1h0a1.651,1.651,0,0,0,1.1-2.052l-3.64-12.06A1.651,1.651,0,0,0,1513.2,1161.43Z" transform="translate(-1512.028 -1161.36)" fill="#f7b686"/>
          </g>
          <g id="Group_490" data-name="Group 490" transform="translate(0 2.668)">
            <path id="Path_322" data-name="Path 322" d="M1452.182,1137.711s-2.217,9.143,1.923,14.39c1.433,1.816,13.211-2.094,13.625-4.653s-2.837-10.464-2.837-10.464Z" transform="translate(-1451.589 -1136.984)" fill="#f7b686"/>
          </g>
          <g id="Group_491" data-name="Group 491" transform="translate(0.465 11.358)">
            <path id="Path_323" data-name="Path 323" d="M1455,1178.935h0a1.647,1.647,0,0,0-1.1,2.047l3.632,12.036a1.647,1.647,0,0,0,2.047,1.1h0a1.648,1.648,0,0,0,1.1-2.047l-3.632-12.035A1.647,1.647,0,0,0,1455,1178.935Z" transform="translate(-1453.829 -1178.866)" fill="#f7b686"/>
          </g>
        </g>
        <g id="Group_494" data-name="Group 494" transform="translate(0 52.388)">
          <g id="Group_493" data-name="Group 493">
            <path id="Path_324" data-name="Path 324" d="M1467.2,815.654c-.371-18.355.524-44.757,6.9-66.3a62.6,62.6,0,0,1,3.392-9.652c1.027-2.235-1.742-6.588-5.547-8.387-3.57-1.688-8.735-.772-9.444.339-1.207,1.89-2.33,5.38-4.067,10.915-6.036,19.233-8.239,43.455-6.8,74.207Z" transform="translate(-1451.205 -730.388)" fill="#f7b686"/>
          </g>
        </g>
        <g id="Group_495" data-name="Group 495" transform="translate(10.082 108.017)">
          <path id="Path_325" data-name="Path 325" d="M1544.522,1119.371c-9.01-.4-18.583-.848-28.8-1.348-2.866-15.165-6.141-33.152-9.122-51.062q-1.334-8.03-2.34-15.143-.862-6.081-1.517-11.484-.164-1.357-.318-2.673v0q-.148-1.263-.283-2.481l0-.022c-.162-1.437-.309-2.833-.449-4.187-.09-.861-.173-1.707-.257-2.535-.035-.373-.07-.743-.1-1.109q-.112-1.176-.213-2.307-.075-.838-.145-1.65a.389.389,0,0,1,0-.048q-.115-1.348-.217-2.618c-.04-.508-.079-1.008-.114-1.5-1.034-13.706-.824-20.715-.824-20.715l6.536,1.262,26.839,5.18,3.832.741.622,11.637.11,2.027.109,2.071.331,6.166.337,6.321.362,6.736,2.511,35.117v0Z" transform="translate(-1499.794 -998.485)" fill="#6f4975"/>
        </g>
        <g id="Group_496" data-name="Group 496" transform="translate(43.403 108.017)">
          <path id="Path_326" data-name="Path 326" d="M1705.2,1120.657c-8.889-.276-18.377-.637-28.6-1.078-2.469-13.033-5.267-28.281-7.93-43.834v0q-.749-4.381-1.483-8.782c-2.116-12.722-3.58-23.721-4.588-32.957q-.375-3.434-.671-6.54-.312-3.323-.55-6.267-.082-1-.154-1.959-.079-1.052-.149-2.051c-.357-5.136-.534-9.229-.62-12.26-.12-4.277-.055-6.442-.055-6.442l37.206,7.183.879,16.4.046.866.158,2.947.366,6.834.425,7.91Z" transform="translate(-1660.379 -998.485)" fill="#6f4975"/>
        </g>
        <g id="Group_497" data-name="Group 497" transform="translate(7.924 126.631)">
          <path id="Path_327" data-name="Path 327" d="M1565.777,1095.3c-.073,2.83-17.191,3.955-38.363,3.294s-38.09-3.588-38.018-6.419,17.109-4.493,38.28-3.833S1565.849,1092.464,1565.777,1095.3Z" transform="translate(-1489.396 -1088.193)" fill="#2f1a31"/>
        </g>
        <g id="Group_498" data-name="Group 498" transform="translate(7.925 38.597)">
          <path id="Path_328" data-name="Path 328" d="M1560.595,678.914s-3.744-14.838-31.366-14.989c-39.834-.217-36.146,36.385-39.832,92.009,0,0,39.237-5.549,76.4,2.428C1565.8,758.363,1569.245,701.587,1560.595,678.914Z" transform="translate(-1489.397 -663.924)" fill="#fc0"/>
        </g>
        <g id="Group_499" data-name="Group 499" transform="translate(7.925 38.475)">
          <path id="Path_329" data-name="Path 329" d="M1570.791,676.318,1552.75,686.3s-39.5,3.587-49.989,1.86-13.364-9.428-13.364-9.428a57.8,57.8,0,0,1,30.153-14.641c1.783-.293,3.634-.507,5.552-.632a54.575,54.575,0,0,1,9.6.191C1558.758,666.36,1570.791,676.318,1570.791,676.318Z" transform="translate(-1489.397 -663.333)" fill="#fc0"/>
        </g>
        <g id="Group_500" data-name="Group 500" transform="translate(40.815 14.994)">
          <path id="Path_330" data-name="Path 330" d="M1658.65,570.38l-2.085-6.729-.607-1.959-3.568-11.519-.47,11.458-.281,6.877-.089,2.177c-.06,1.478-.961,1.788-2.057,3.073-.444.52-3.287,3.675-.061,5.1,4.018,1.776,11.531-.913,14.387-4.435C1663.8,574.42,1659.323,572.555,1658.65,570.38Z" transform="translate(-1647.911 -550.173)" fill="#f7b686"/>
        </g>
        <g id="Group_501" data-name="Group 501" transform="translate(11.258 130.524)">
          <path id="Path_331" data-name="Path 331" d="M1505.464,1109.331s22.94-6.749,70.451,2.515l.366,6.834-69.646,2.462Z" transform="translate(-1505.464 -1106.957)" fill="#6f4975"/>
        </g>
        <g id="Group_502" data-name="Group 502" transform="translate(69.36 50.873)">
          <path id="Path_332" data-name="Path 332" d="M1805.811,724.087c1.521,2.17-1.713,7.158-7.224,11.141s-11.213,5.454-12.734,3.284,1.712-7.158,7.224-11.141S1804.289,721.918,1805.811,724.087Z" transform="translate(-1785.477 -723.085)" fill="#d4ab07"/>
        </g>
        <g id="Group_519" data-name="Group 519" transform="translate(31.314 0)">
          <g id="Group_503" data-name="Group 503" transform="translate(4.473 10.669)">
            <path id="Path_333" data-name="Path 333" d="M1624,529.327a15.143,15.143,0,0,0,0,6.284c.728,3.5,4.283-5.1,4.283-5.1Z" transform="translate(-1623.676 -529.327)" fill="#56335b"/>
          </g>
          <g id="Group_504" data-name="Group 504" transform="translate(4.246 6.982)">
            <path id="Path_334" data-name="Path 334" d="M1622.709,522.536c.887-6.759,6.151-11.642,11.757-10.906s9.431,6.812,8.543,13.571-6.151,11.643-11.757,10.906S1621.822,529.3,1622.709,522.536Z" transform="translate(-1622.582 -511.556)" fill="#f7b686"/>
          </g>
          <g id="Group_505" data-name="Group 505">
            <path id="Path_335" data-name="Path 335" d="M1627.049,495l-4.955-.514a3.606,3.606,0,0,1-2.676-1.621c-1.015-1.589-2.237-2.405-6.859-2.232-5.853.22-9.718-3.27-10.35-6.332-.645-3.126,2.35-5.245,5.29-3.754s1.678-2.165,4.5-2.553c5.283-.725,6.272,3.348,10.6,3.215,5.671-.174,15.829,4.136,11.012,14.119Z" transform="translate(-1602.12 -477.909)" fill="#2f1a31"/>
          </g>
          <g id="Group_507" data-name="Group 507" transform="translate(13.124 18.375)">
            <g id="Group_506" data-name="Group 506">
              <path id="Path_336" data-name="Path 336" d="M1665.636,567.795a.207.207,0,0,1-.225-.323,2.247,2.247,0,0,1,2.6-.893.209.209,0,0,1,.147.254.228.228,0,0,1-.254.147,3.556,3.556,0,0,0-2.164.74A.205.205,0,0,1,1665.636,567.795Z" transform="translate(-1665.37 -566.467)" fill="#060633"/>
            </g>
          </g>
          <g id="Group_508" data-name="Group 508" transform="translate(13.586 20.386)">
            <path id="Path_337" data-name="Path 337" d="M1668.9,577.208c-.13.478-.517.788-.863.694a.8.8,0,0,1-.392-1.036c.13-.478.517-.788.864-.694A.8.8,0,0,1,1668.9,577.208Z" transform="translate(-1667.597 -576.155)" fill="#060633"/>
          </g>
          <g id="Group_510" data-name="Group 510" transform="translate(6.302 17.17)">
            <g id="Group_509" data-name="Group 509">
              <path id="Path_338" data-name="Path 338" d="M1632.53,560.986a.151.151,0,0,1-.031-.149.25.25,0,0,1,.23-.18,1.455,1.455,0,0,1,1.574,1.435.247.247,0,0,1-.166.238.154.154,0,0,1-.2-.109,2.177,2.177,0,0,0-1.305-1.193A.137.137,0,0,1,1632.53,560.986Z" transform="translate(-1632.492 -560.656)" fill="#060633"/>
            </g>
          </g>
          <g id="Group_511" data-name="Group 511" transform="translate(6.899 19.475)">
            <path id="Path_339" data-name="Path 339" d="M1636.671,572.578c.061.491-.178.926-.534.97s-.7-.317-.757-.809.177-.926.534-.971S1636.61,572.087,1636.671,572.578Z" transform="translate(-1635.37 -571.765)" fill="#060633"/>
          </g>
          <g id="Group_512" data-name="Group 512" transform="translate(18.872 15.983)">
            <path id="Path_340" data-name="Path 340" d="M1705.691,556.373s-3.77,7.717-8.274,7.926c0,0,3.308-6.053-4.347-9.058C1693.07,555.242,1700.663,554.047,1705.691,556.373Z" transform="translate(-1693.07 -554.935)" fill="#56335b"/>
          </g>
          <g id="Group_513" data-name="Group 513" transform="translate(21.421 17.755)">
            <path id="Path_341" data-name="Path 341" d="M1708.587,567.217a2,2,0,1,1,.811-2.875A2.119,2.119,0,0,1,1708.587,567.217Z" transform="translate(-1705.356 -563.476)" fill="#f7b686"/>
          </g>
          <g id="Group_514" data-name="Group 514" transform="translate(4.795 16.289)">
            <path id="Path_342" data-name="Path 342" d="M1639.306,556.413s.662,6.2-.6,7.368-9.59,1.676-13.477.174h0a8.1,8.1,0,0,0,6.666,8.153,11.774,11.774,0,0,0,3.976-.014h0c2.721-.476,5.366-1.6,6.488-4.125.342-.768-.652-5.493-.652-5.493s-.373-2.773,1.24-4.216A7.9,7.9,0,0,0,1639.306,556.413Z" transform="translate(-1625.229 -556.413)" fill="#56335b"/>
          </g>
          <g id="Group_515" data-name="Group 515" transform="translate(5.922 0.788)">
            <path id="Path_343" data-name="Path 343" d="M1630.745,483.069h-.085l.009-.28a1.277,1.277,0,0,0,1.473-1.083l.278.025A1.555,1.555,0,0,1,1630.745,483.069Z" transform="translate(-1630.66 -481.705)" fill="#2f1a31"/>
          </g>
          <g id="Group_516" data-name="Group 516" transform="translate(2.114 3.59)">
            <path id="Path_344" data-name="Path 344" d="M1618.973,502.7a18.659,18.659,0,0,1-3.213-1.337c-2.137-1.152-3.325-2.485-3.435-3.856a2.224,2.224,0,0,1,.511-1.957c.671-.578,1.832-.307,2.855-.068.152.036.3.07.443.1l-.03.136c-.143-.031-.292-.066-.445-.1-.991-.231-2.116-.494-2.732.038a2.106,2.106,0,0,0-.463,1.84c.258,3.206,6.485,5.052,6.548,5.071Z" transform="translate(-1612.307 -495.21)" fill="#fff"/>
          </g>
          <g id="Group_517" data-name="Group 517" transform="translate(13.751 1.687)">
            <path id="Path_345" data-name="Path 345" d="M1675.685,488.933a11,11,0,0,1-5.043-1.148,7.552,7.552,0,0,1-2.25-1.659l.107-.089c.029.035,2.959,3.452,9.036,2.629l.019.138A13.887,13.887,0,0,1,1675.685,488.933Z" transform="translate(-1668.392 -486.037)" fill="#fff"/>
          </g>
          <g id="Group_518" data-name="Group 518" transform="translate(8.014 25.822)">
            <path id="Path_346" data-name="Path 346" d="M1640.826,604.062c-.086-.386-.371-1.229,1.029-1.2s2.315-.858,3.315-.343a1.107,1.107,0,0,1-.591,2.125c-1.12.006-1.9.618-2.487.579A1.184,1.184,0,0,1,1640.826,604.062Z" transform="translate(-1640.743 -602.357)" fill="#fff"/>
          </g>
        </g>
        <g id="Group_539" data-name="Group 539" transform="translate(19.885 29.638)">
          <g id="Group_521" data-name="Group 521" transform="translate(8.494 24.909)">
            <g id="Group_520" data-name="Group 520">
              <path id="Path_347" data-name="Path 347" d="M1597.92,768.36c7.638,7.562,26.4,9.646,31.1,5.717,5.476-4.57,4.76-14.178,2.719-21.4-.75-2.656.016-4.49,3.705-8.093a13,13,0,0,1,8.453-3.739c2.326-.184,4.455.1,5.161,1.935a57.775,57.775,0,0,1,2.928,10.54c2.629,12.787.675,23.874-4.505,31.31-7.271,10.435-27.117,21.1-59.353-2.48C1586.6,781.025,1596.672,767.124,1597.92,768.36Z" transform="translate(-1587.976 -740.793)" fill="#f7b686"/>
            </g>
          </g>
          <g id="Group_532" data-name="Group 532" transform="translate(4.136)">
            <g id="Group_522" data-name="Group 522" transform="translate(0 24.102)">
              <path id="Path_348" data-name="Path 348" d="M1567.329,766.741h0a.761.761,0,0,1-.241-1.047l17.773-28.434a.762.762,0,0,1,1.047-.242h0a.762.762,0,0,1,.241,1.047L1568.376,766.5A.762.762,0,0,1,1567.329,766.741Z" transform="translate(-1566.973 -736.903)" fill="#2f1a31"/>
            </g>
            <g id="Group_531" data-name="Group 531" transform="translate(9.285)">
              <g id="Group_523" data-name="Group 523">
                <path id="Path_349" data-name="Path 349" d="M1638.248,644.64c-4.562,7.3-13.622,9.862-20.237,5.727s-8.279-13.4-3.718-20.7,9.24-12.6,20.237-5.727C1645.9,631.05,1642.809,637.343,1638.248,644.64Z" transform="translate(-1611.72 -620.747)" fill="#fff"/>
              </g>
              <g id="Group_525" data-name="Group 525" transform="translate(20.623 12.243)">
                <g id="Group_524" data-name="Group 524">
                  <path id="Path_350" data-name="Path 350" d="M1711.227,680.3a.3.3,0,0,1,.19-.546,3.3,3.3,0,0,1,3.308,2.326.307.307,0,0,1-.175.394.335.335,0,0,1-.394-.175,5.222,5.222,0,0,0-2.745-1.935A.307.307,0,0,1,1711.227,680.3Z" transform="translate(-1711.109 -679.75)" fill="#fc0"/>
                </g>
              </g>
              <g id="Group_527" data-name="Group 527" transform="translate(11.598 5.506)">
                <g id="Group_526" data-name="Group 526">
                  <path id="Path_351" data-name="Path 351" d="M1667.688,647.783a.3.3,0,0,1,.3-.494,3.3,3.3,0,0,1,2.745,2.971.307.307,0,0,1-.254.348.334.334,0,0,1-.349-.254,5.221,5.221,0,0,0-2.277-2.47A.3.3,0,0,1,1667.688,647.783Z" transform="translate(-1667.616 -647.282)" fill="#fc0"/>
                </g>
              </g>
              <g id="Group_528" data-name="Group 528" transform="translate(5.919 18.141)">
                <path id="Path_352" data-name="Path 352" d="M1648.134,715.057a8.086,8.086,0,0,1-5.284-1.682,7.61,7.61,0,0,1-2.605-4.842.329.329,0,0,1,.655-.057,7.064,7.064,0,0,0,2.374,4.4,8.228,8.228,0,0,0,6.33,1.442.329.329,0,1,1,.074.653A13.84,13.84,0,0,1,1648.134,715.057Z" transform="translate(-1640.244 -708.177)" fill="#fc0"/>
              </g>
              <g id="Group_529" data-name="Group 529" transform="translate(9.917 11.162)">
                <path id="Path_353" data-name="Path 353" d="M1661.755,676.674c-.491.786-1.312,1.158-1.834.832s-.546-1.227-.055-2.013,1.312-1.158,1.833-.832S1662.247,675.887,1661.755,676.674Z" transform="translate(-1659.514 -674.542)" fill="#fc0"/>
              </g>
              <g id="Group_530" data-name="Group 530" transform="translate(16.921 15.54)">
                <path id="Path_354" data-name="Path 354" d="M1695.512,697.773c-.491.786-1.312,1.158-1.833.832s-.546-1.227-.055-2.013,1.312-1.158,1.834-.832S1696,696.988,1695.512,697.773Z" transform="translate(-1693.271 -695.642)" fill="#fc0"/>
              </g>
            </g>
          </g>
          <g id="Group_538" data-name="Group 538" transform="translate(0 36.451)">
            <g id="Group_534" data-name="Group 534">
              <g id="Group_533" data-name="Group 533">
                <path id="Path_355" data-name="Path 355" d="M1565.478,812.445s.912-8.182-2.311-11.766-10.047-5.725-8.521-3.079a31.8,31.8,0,0,0,4.408,5.487s-6.445-5.782-7.144-3.689,4.954,7.067,4.954,7.067-8.217-6.269-8.238-4.078,6.255,6.909,6.255,6.909-7.879-5.527-7.843-2.981,6.54,4.525,5.841,6.618-2.769,10.642,2.811,13.3Z" transform="translate(-1547.039 -796.421)" fill="#f7b686"/>
              </g>
            </g>
            <g id="Group_535" data-name="Group 535" transform="translate(11.673 6.325)">
              <path id="Path_356" data-name="Path 356" d="M1605.738,830.465a.342.342,0,0,1-.342-.337c-.018-1.308-1.927-2.584-1.946-2.6a.342.342,0,1,1,.376-.571c.091.06,2.23,1.488,2.253,3.159a.342.342,0,0,1-.338.346Z" transform="translate(-1603.297 -826.903)" fill="#e08b65"/>
            </g>
            <g id="Group_536" data-name="Group 536" transform="translate(9.483 9.703)">
              <path id="Path_357" data-name="Path 357" d="M1595.591,847.3a.342.342,0,0,1-.334-.27,5.837,5.837,0,0,0-2.356-3.22.342.342,0,0,1,.366-.578,6.432,6.432,0,0,1,2.659,3.653.342.342,0,0,1-.335.414Z" transform="translate(-1592.743 -843.184)" fill="#e08b65"/>
            </g>
            <g id="Group_537" data-name="Group 537" transform="translate(7.501 12.534)">
              <path id="Path_358" data-name="Path 358" d="M1585.887,860.74h-.025a.343.343,0,0,1-.317-.365c.081-1.151-1.561-2.5-2.2-2.917a.342.342,0,0,1,.375-.572c.108.071,2.635,1.751,2.509,3.538A.342.342,0,0,1,1585.887,860.74Z" transform="translate(-1583.189 -856.829)" fill="#e08b65"/>
            </g>
          </g>
        </g>
        <g id="Group_540" data-name="Group 540" transform="translate(32.587 143.275)">
          <path id="Path_359" data-name="Path 359" d="M1627.191,1213.259a.364.364,0,0,1-.361-.316c-.022-.169-2.28-17.022-6.6-29.281-1.231-3.491-3.528-8.383-7.482-11.863a13.3,13.3,0,0,0-4.237-2.678.364.364,0,0,1,.215-.7c.316.1,7.793,2.526,12.19,14.995,4.349,12.332,6.615,29.259,6.638,29.429a.363.363,0,0,1-.313.408A.327.327,0,0,1,1627.191,1213.259Z" transform="translate(-1608.253 -1168.408)" fill="#020202"/>
        </g>
      </g>
      <g id="Group_600" data-name="Group 600" transform="translate(187.532 307.203)">
        <g id="Group_542" data-name="Group 542" transform="translate(41.243 121.836)">
          <path id="Path_360" data-name="Path 360" d="M690.02,1229.362c-10.2.228-20.31.469-30.076.7l-4.459-37.578-1.03-8.683,0-.013v0l-.894-7.559-2.925-21.344-.434-3.175c4.75.576-10.831-3.352-7.191-.879l-7.667-4.5s.508-.16,1.431-.427c.692-.2,1.622-.467,2.741-.769,3.076-.831,7.6-1.952,12.7-2.9q1.137-.214,2.31-.41c.16-.029.322-.055.482-.081,1.63-.269,3.3-.515,4.983-.721,10.055-1.234,20.645-1.113,26.355,3.269.269,2.708.581,6.319.9,10.474.923,11.946,1.919,28.4,2.226,40.845C689.755,1207.062,689.924,1218.577,690.02,1229.362Z" transform="translate(-635.342 -1140.34)" fill="#6f4975"/>
        </g>
        <g id="Group_543" data-name="Group 543" transform="translate(16.03 127.009)">
          <path id="Path_361" data-name="Path 361" d="M565.952,1169.285l-1.422,6.256-2.684,11.791v0l-1.521,6.678v0l-2.171,9.547-1.889,8.3-8.723,38.341c-6.144.14-12.082.272-17.74.384q-2.455.049-4.836.092l-1.037.02q-5.249.1-10.1.162c.316-5.136.64-10.377.966-15.614.031-.508.064-1.012.094-1.521v0c.465-7.5.931-14.972,1.376-22.067v0c.314-4.989.616-9.794.9-14.3.026-.4.05-.791.077-1.181q.075-1.2.149-2.366.053-.816.1-1.615c.12-1.869.237-3.67.349-5.395.337-5.217.635-9.729.874-13.261.226-3.3.4-5.745.515-7.112.046-.55.081-.927.105-1.113,0,0,2.651-.055,6.68-.035,3.909.02,9.115.107,14.453.382,3.819.195,7.706.484,11.232.911,1.58.193,3.284.285,4.987.412C560.106,1167.234,563.522,1167.635,565.952,1169.285Z" transform="translate(-513.827 -1165.27)" fill="#6f4975"/>
        </g>
        <g id="Group_544" data-name="Group 544" transform="translate(60.015 140.99)">
          <path id="Path_362" data-name="Path 362" d="M726.491,1257.017l-.681-.142,2.165-10.4c1.386-6.572,2.6-10.078,7.735-13.823l.41.562c-4.961,3.619-6.084,6.863-7.464,13.4Z" transform="translate(-725.81 -1232.65)" fill="#020202"/>
        </g>
        <g id="Group_545" data-name="Group 545" transform="translate(20.375 32.317)">
          <path id="Path_363" data-name="Path 363" d="M543.449,722.44s4.492-14.683,32.18-13.455c24.444,1.083,31.146,13.889,33.046,38.864,1.2,15.821,2.895,41.553,3.156,64.224,0,0-33.279,7.971-77.063-7.691C534.768,804.382,537.008,737.066,543.449,722.44Z" transform="translate(-534.768 -708.912)" fill="#fc0"/>
        </g>
        <g id="Group_547" data-name="Group 547" transform="translate(61.361 47.986)">
          <g id="Group_546" data-name="Group 546">
            <path id="Path_364" data-name="Path 364" d="M737.2,826.9c9.762,4.5,28.1.048,31.187-5.252,3.585-6.166-.37-14.951-4.756-21.045-1.612-2.24-1.519-4.225.718-8.872a13,13,0,0,1,6.667-6.4c2.122-.967,4.223-1.423,5.512.056a57.772,57.772,0,0,1,6.352,8.906c6.839,11.12,8.79,22.207,6.461,30.965-3.269,12.291-18.28,29.089-56.63,17.944C730.89,842.666,735.6,826.161,737.2,826.9Z" transform="translate(-732.298 -784.429)" fill="#f7b686"/>
          </g>
        </g>
        <g id="Group_548" data-name="Group 548" transform="translate(15.272 32.23)">
          <path id="Path_365" data-name="Path 365" d="M510.176,724.955s2.037,1.791,10.257,11.632c9.206,11.021,51.991,12.255,62.586,11.047s21.254-19.83,21.254-19.83-9.093-14.138-38.466-18.033c-1.8-.238-3.616-.689-5.532-.91a58.637,58.637,0,0,0-9.625-.288C520.336,710.107,510.176,724.955,510.176,724.955Z" transform="translate(-510.176 -708.495)" fill="#fc0"/>
        </g>
        <g id="Group_573" data-name="Group 573" transform="translate(55.614)">
          <g id="Group_549" data-name="Group 549" transform="translate(3.798 13.636)">
            <path id="Path_366" data-name="Path 366" d="M723.087,639.246c-.774-2.212,1.049-1.941,2.086-3.731l3.206-5.54.933-1.613,5.487-9.483-1.9,10.245-1.14,6.149-.361,1.947c-.245,1.321.069,1.588.781,2.947.288.55,1.33,2.747-.8,3.2C729.468,643.774,724.073,642.066,723.087,639.246Z" transform="translate(-722.901 -618.879)" fill="#f7b686"/>
          </g>
          <g id="Group_550" data-name="Group 550" transform="translate(1.041 7.139)">
            <path id="Path_367" data-name="Path 367" d="M716.138,602.309s-9.1-5.908-5.8-12.945,7.43,8.918,7.43,8.918l-.547,3.969Z" transform="translate(-709.617 -587.571)" fill="#2d2d2d"/>
          </g>
          <g id="Group_551" data-name="Group 551" transform="translate(9.273 23.015)">
            <path id="Path_368" data-name="Path 368" d="M749.3,665.628q-.007.086-.008.172c-.115,3.357,3.358,5.314,3.358,5.314l.024-.016,1.14-6.149c-1.07-.522-2.612-1.106-3.589-.762A1.455,1.455,0,0,0,749.3,665.628Z" transform="translate(-749.287 -664.084)" fill="#2d2d2d"/>
          </g>
          <g id="Group_552" data-name="Group 552" transform="translate(6.575 5.469)">
            <path id="Path_369" data-name="Path 369" d="M754.6,591.561c.668-6.071-2.872-11.441-7.906-11.995s-9.657,3.918-10.325,9.989S739.24,601,744.274,601.55,753.932,597.632,754.6,591.561Z" transform="translate(-736.287 -579.52)" fill="#f7b686"/>
          </g>
          <g id="Group_553" data-name="Group 553" transform="translate(6.574 5.487)">
            <path id="Path_370" data-name="Path 370" d="M754.592,591.649c.668-6.07-2.872-11.441-7.906-11.995s-9.657,3.918-10.325,9.989,2.872,11.441,7.906,11.995S753.924,597.72,754.592,591.649Z" transform="translate(-736.28 -579.608)" fill="#f7b686"/>
          </g>
          <g id="Group_554" data-name="Group 554" transform="translate(1.761)">
            <path id="Path_371" data-name="Path 371" d="M719.456,567.532s2.79,1.312,4.572-.57,2.974-3.574,8.021-2.136,9.906-.539,10.355-3.3-2.121-4.338-5-3.668.343-1.56-2.183-3.907-7.118,1.415-9.906.539-12.042-.36-12.235,7.61Z" transform="translate(-713.084 -553.163)" fill="#2d2d2d"/>
          </g>
          <g id="Group_555" data-name="Group 555" transform="translate(5.89 13.135)">
            <path id="Path_372" data-name="Path 372" d="M733.584,619.6a1.794,1.794,0,1,0-.093-2.674A1.9,1.9,0,0,0,733.584,619.6Z" transform="translate(-732.984 -616.465)" fill="#f7b686"/>
          </g>
          <g id="Group_556" data-name="Group 556" transform="translate(20.722 6.283)">
            <path id="Path_373" data-name="Path 373" d="M809.014,585.515a6.949,6.949,0,0,1-2.475-.587,15.662,15.662,0,0,1-2.072-1.022l.065-.107c.037.022,3.668,2.214,5.414,1.412.844-.388,1.022-.852.908-1.158-.139-.371-.727-.624-1.47-.406a3.823,3.823,0,0,1-2.35.068l.046-.116a3.785,3.785,0,0,0,2.268-.072c.814-.238,1.464.058,1.622.482.134.358-.051.892-.973,1.315A2.349,2.349,0,0,1,809.014,585.515Z" transform="translate(-804.467 -583.443)" fill="#fff"/>
          </g>
          <g id="Group_557" data-name="Group 557" transform="translate(8.325 1.705)">
            <path id="Path_374" data-name="Path 374" d="M751.927,563.155a4.718,4.718,0,0,1-.868-.079,21.159,21.159,0,0,1-2.356-.621c-1.457-.447-2.715-.832-3.938-.351l-.046-.116c1.263-.5,2.541-.106,4.02.348a21.079,21.079,0,0,0,2.343.617,7.3,7.3,0,0,0,5.272-1.574l.107.064A7.7,7.7,0,0,1,751.927,563.155Z" transform="translate(-744.719 -561.379)" fill="#fff"/>
          </g>
          <g id="Group_558" data-name="Group 558" transform="translate(3.706 6.054)">
            <path id="Path_375" data-name="Path 375" d="M722.7,584.283a.253.253,0,0,1-.04,0c-.1-.019-.222-.109-.2-.436l.006-.021c.032-.07.8-1.722,1.487-1.452.085.033.215.133.133.425C723.932,583.345,723.1,584.283,722.7,584.283Zm-.113-.419c-.009.127,0,.276.095.292.292.05,1.136-.861,1.287-1.4.064-.226-.028-.262-.058-.274C723.43,582.3,722.8,583.408,722.586,583.864Z" transform="translate(-722.458 -582.34)" fill="#fff"/>
          </g>
          <g id="Group_560" data-name="Group 560" transform="translate(15.325 15.771)">
            <g id="Group_559" data-name="Group 559">
              <path id="Path_376" data-name="Path 376" d="M780.641,629.512a.186.186,0,0,0-.1-.337,2.013,2.013,0,0,0-2.069,1.341.187.187,0,0,0,.1.244.2.2,0,0,0,.244-.1,3.184,3.184,0,0,1,1.718-1.115A.181.181,0,0,0,780.641,629.512Z" transform="translate(-778.455 -629.169)" fill="#060633"/>
            </g>
          </g>
          <g id="Group_561" data-name="Group 561" transform="translate(16.205 17.773)">
            <path id="Path_377" data-name="Path 377" d="M782.7,639.637c.012.443.282.8.6.788s.573-.375.562-.818-.282-.8-.6-.788S782.687,639.193,782.7,639.637Z" transform="translate(-782.698 -638.818)" fill="#060633"/>
          </g>
          <g id="Group_563" data-name="Group 563" transform="translate(22.604 16.488)">
            <g id="Group_562" data-name="Group 562">
              <path id="Path_378" data-name="Path 378" d="M814.895,634.095a.136.136,0,0,0,.136.012.224.224,0,0,0,.138-.223,1.3,1.3,0,0,0-1.433-1.259.221.221,0,0,0-.195.172.137.137,0,0,0,.117.171,1.946,1.946,0,0,1,1.191,1.044A.125.125,0,0,0,814.895,634.095Z" transform="translate(-813.536 -632.625)" fill="#060633"/>
            </g>
          </g>
          <g id="Group_564" data-name="Group 564" transform="translate(22.197 18.443)">
            <path id="Path_379" data-name="Path 379" d="M811.643,642.618a.72.72,0,0,0,.258.958c.3.115.673-.128.831-.542a.72.72,0,0,0-.258-.958C812.173,641.96,811.8,642.2,811.643,642.618Z" transform="translate(-811.572 -642.047)" fill="#060633"/>
          </g>
          <g id="Group_565" data-name="Group 565" transform="translate(20.717 12.866)">
            <path id="Path_380" data-name="Path 380" d="M807.7,627.328a2.478,2.478,0,0,1-1.4-.437c-1.824-1.225-2.407-4.744-1.3-7.845h0a5.8,5.8,0,0,1,3.194-3.737,2.49,2.49,0,0,1,2.239.3c1.824,1.225,2.407,4.744,1.3,7.845a5.8,5.8,0,0,1-3.194,3.737A2.7,2.7,0,0,1,807.7,627.328Zm1.34-11.772a2.3,2.3,0,0,0-.719.12,5.431,5.431,0,0,0-2.952,3.5h0c-1.053,2.945-.537,6.262,1.15,7.395a2.116,2.116,0,0,0,1.9.25,5.429,5.429,0,0,0,2.952-3.5c1.053-2.945.537-6.262-1.15-7.395A2.1,2.1,0,0,0,809.036,615.556Z" transform="translate(-804.44 -615.169)" fill="#fff"/>
          </g>
          <g id="Group_566" data-name="Group 566" transform="translate(11.053 10.464)" opacity="0.3">
            <path id="Path_381" data-name="Path 381" d="M758.141,607.483c-.8,3.027.2,6.342,2.228,7.4s4.326-.532,5.127-3.559-.2-6.342-2.228-7.4S758.942,604.456,758.141,607.483Z" transform="translate(-757.865 -603.595)" fill="#fff"/>
          </g>
          <g id="Group_567" data-name="Group 567" transform="translate(20.879 13.125)" opacity="0.3">
            <path id="Path_382" data-name="Path 382" d="M805.53,620.285c-.8,3.041.009,6.4,1.815,7.5s3.92-.476,4.723-3.517-.01-6.4-1.815-7.5S806.333,617.244,805.53,620.285Z" transform="translate(-805.22 -616.418)" fill="#fff"/>
          </g>
          <g id="Group_568" data-name="Group 568" transform="translate(10.854 9.676)">
            <path id="Path_383" data-name="Path 383" d="M761.162,612.305a3.213,3.213,0,0,1-1.475-.368c-2.239-1.147-3.351-4.712-2.48-7.947a5.727,5.727,0,0,1,2.926-3.9,3.164,3.164,0,0,1,2.809.075c2.239,1.147,3.352,4.712,2.48,7.947a5.726,5.726,0,0,1-2.926,3.9A3.279,3.279,0,0,1,761.162,612.305Zm.3-12.124a2.891,2.891,0,0,0-1.177.258,5.423,5.423,0,0,0-2.71,3.651h0c-.826,3.069.2,6.435,2.284,7.5a2.789,2.789,0,0,0,2.476.066,5.422,5.422,0,0,0,2.71-3.651c.827-3.069-.2-6.435-2.284-7.5A2.831,2.831,0,0,0,761.465,600.181Z" transform="translate(-756.91 -599.794)" fill="#fff"/>
          </g>
          <g id="Group_569" data-name="Group 569" transform="translate(18.349 16.74)">
            <path id="Path_384" data-name="Path 384" d="M796.25,635.246a.358.358,0,0,1-.238-.09,3.221,3.221,0,0,0-2.566-.544.36.36,0,0,1-.115-.711,3.923,3.923,0,0,1,3.159.716.36.36,0,0,1-.24.629Z" transform="translate(-793.029 -633.838)" fill="#fff"/>
          </g>
          <g id="Group_570" data-name="Group 570" transform="translate(0.896 6.178)">
            <path id="Path_385" data-name="Path 385" d="M709.716,585.771a2.371,2.371,0,0,1-.546-2.831l.18.094a2.132,2.132,0,0,0,.5,2.583Z" transform="translate(-708.917 -582.94)" fill="#2f1a31"/>
          </g>
          <g id="Group_571" data-name="Group 571" transform="translate(0 9.678)">
            <path id="Path_386" data-name="Path 386" d="M704.737,600.99l-.139-.148a3.817,3.817,0,0,1,2.1-1.037l0,.2h-.025A3.686,3.686,0,0,0,704.737,600.99Z" transform="translate(-704.598 -599.805)" fill="#2f1a31"/>
          </g>
          <g id="Group_572" data-name="Group 572" transform="translate(16.979 22.724)">
            <path id="Path_387" data-name="Path 387" d="M788.542,664.388a1.242,1.242,0,0,1-1.5.71.92.92,0,0,1-.483-1.354c.309-.623,1.022-1.2,1.495-1.037S788.766,663.729,788.542,664.388Z" transform="translate(-786.428 -662.679)" fill="#fff"/>
          </g>
        </g>
        <g id="Group_574" data-name="Group 574" transform="translate(14.912 48.043)">
          <path id="Path_388" data-name="Path 388" d="M508.614,785.619c-1.063,1.931,2.921,6.281,8.9,9.715s11.685,4.653,12.747,2.722-2.921-6.281-8.9-9.715S509.677,783.688,508.614,785.619Z" transform="translate(-508.442 -784.703)" fill="#cea502"/>
        </g>
        <g id="Group_585" data-name="Group 585" transform="translate(51.972 30.045)">
          <g id="Group_575" data-name="Group 575" transform="translate(0 25.329)">
            <path id="Path_389" data-name="Path 389" d="M687.462,852.208h0a.792.792,0,0,1-.321-1.07l16.517-30.692a.792.792,0,0,1,1.07-.321h0a.792.792,0,0,1,.321,1.07l-16.517,30.692A.792.792,0,0,1,687.462,852.208Z" transform="translate(-687.047 -820.032)" fill="#2f1a31"/>
          </g>
          <g id="Group_584" data-name="Group 584" transform="translate(7.199)">
            <g id="Group_576" data-name="Group 576">
              <path id="Path_390" data-name="Path 390" d="M749.706,721.912c-4.239,7.877-13.464,11.148-20.6,7.306S719.61,715.874,723.849,708s8.735-13.693,20.6-7.306C756.731,707.3,753.945,714.034,749.706,721.912Z" transform="translate(-721.74 -697.963)" fill="#fff"/>
            </g>
            <g id="Group_578" data-name="Group 578" transform="translate(21.075 12.225)">
              <g id="Group_577" data-name="Group 577">
                <path id="Path_391" data-name="Path 391" d="M823.45,757.481a.317.317,0,0,1,.16-.58,3.432,3.432,0,0,1,3.588,2.19.319.319,0,0,1-.155.421.348.348,0,0,1-.421-.155,5.426,5.426,0,0,0-2.979-1.822A.315.315,0,0,1,823.45,757.481Z" transform="translate(-823.31 -756.882)" fill="#fc0"/>
              </g>
            </g>
            <g id="Group_580" data-name="Group 580" transform="translate(11.26 5.862)">
              <g id="Group_579" data-name="Group 579">
                <path id="Path_392" data-name="Path 392" d="M776.1,726.753a.317.317,0,0,1,.278-.533,3.432,3.432,0,0,1,3.047,2.9.319.319,0,0,1-.24.378.348.348,0,0,1-.379-.241,5.428,5.428,0,0,0-2.529-2.408A.317.317,0,0,1,776.1,726.753Z" transform="translate(-776.007 -726.216)" fill="#fc0"/>
              </g>
            </g>
            <g id="Group_581" data-name="Group 581" transform="translate(6.223 19.35)">
              <path id="Path_393" data-name="Path 393" d="M759.578,797.87a8.067,8.067,0,0,1-4.815-1.413,7.911,7.911,0,0,1-3.029-4.847.342.342,0,0,1,.675-.1,7.345,7.345,0,0,0,2.759,4.4c1.677,1.2,3.919,1.558,6.663,1.068a.342.342,0,0,1,.12.672A13.53,13.53,0,0,1,759.578,797.87Z" transform="translate(-751.73 -791.216)" fill="#fc0"/>
            </g>
            <g id="Group_582" data-name="Group 582" transform="translate(10.015 11.743)">
              <path id="Path_394" data-name="Path 394" d="M772.337,756.739c-.456.848-1.283,1.29-1.846.987s-.65-1.236-.193-2.084,1.283-1.29,1.845-.987S772.794,755.891,772.337,756.739Z" transform="translate(-770.006 -754.559)" fill="#fc0"/>
            </g>
            <g id="Group_583" data-name="Group 583" transform="translate(17.575 15.812)">
              <path id="Path_395" data-name="Path 395" d="M808.775,776.347c-.456.848-1.283,1.29-1.846.987s-.649-1.236-.193-2.084,1.283-1.29,1.846-.987S809.231,775.5,808.775,776.347Z" transform="translate(-806.443 -774.167)" fill="#fc0"/>
            </g>
          </g>
        </g>
        <g id="Group_591" data-name="Group 591" transform="translate(46.777 78.604)">
          <g id="Group_587" data-name="Group 587">
            <g id="Group_586" data-name="Group 586">
              <path id="Path_396" data-name="Path 396" d="M681.5,943.838s-1.939-8-6.191-10.268-11.4-1.948-9.06.017a31.764,31.764,0,0,0,6.018,3.651s-8.033-3.232-7.975-1.026,7.071,4.949,7.071,4.949-9.864-3.084-9.135-1.018,8.24,4.356,8.24,4.356-9.292-2.5-8.389-.123,7.693,2.018,7.75,4.224,1.033,10.948,7.184,11.536Z" transform="translate(-662.011 -931.989)" fill="#f7b686"/>
            </g>
          </g>
          <g id="Group_588" data-name="Group 588" transform="translate(9.909 4.907)">
            <path id="Path_397" data-name="Path 397" d="M713.065,958.309a.342.342,0,0,1-.32-.221c-.386-1.018-2.092-1.627-2.716-1.776a.342.342,0,1,1,.158-.665c.106.025,2.605.636,3.2,2.2a.342.342,0,0,1-.2.441A.336.336,0,0,1,713.065,958.309Z" transform="translate(-709.766 -955.638)" fill="#e08b65"/>
          </g>
          <g id="Group_589" data-name="Group 589" transform="translate(9.005 8.83)">
            <path id="Path_398" data-name="Path 398" d="M709.281,977.6a.341.341,0,0,1-.29-.16,5.837,5.837,0,0,0-3.314-2.221.342.342,0,0,1,.146-.668,6.43,6.43,0,0,1,3.747,2.525.342.342,0,0,1-.289.524Z" transform="translate(-705.409 -974.544)" fill="#e08b65"/>
          </g>
          <g id="Group_590" data-name="Group 590" transform="translate(8.109 12.168)">
            <path id="Path_399" data-name="Path 399" d="M704.75,993.545a.342.342,0,0,1-.329-.248c-.317-1.11-2.32-1.813-3.066-1.99a.342.342,0,0,1,.158-.665c.125.03,3.074.746,3.566,2.468a.343.343,0,0,1-.329.436Z" transform="translate(-701.092 -990.632)" fill="#e08b65"/>
          </g>
        </g>
        <g id="Group_593" data-name="Group 593" transform="translate(0 50.088)">
          <g id="Group_592" data-name="Group 592">
            <path id="Path_400" data-name="Path 400" d="M484.255,855.683c-10.737.489-25.045-7.235-24.314-21.065.376-7.122,3.8-14.727,9.495-28.218,1.074-2.543-6.811-11.46-15.849-11.843-2.33-.1-17.207,25.334-17.01,39.958.171,12.717,5.974,31.1,45.7,35.225C484.158,869.936,486.01,855.6,484.255,855.683Z" transform="translate(-436.574 -794.557)" fill="#f7b686"/>
          </g>
        </g>
        <g id="Group_599" data-name="Group 599" transform="translate(39.873 110.275)">
          <g id="Group_595" data-name="Group 595">
            <g id="Group_594" data-name="Group 594">
              <path id="Path_401" data-name="Path 401" d="M635.642,1085.584s10.953-1.8,15.583-.465,9.532,6.546,6.486,6.327a31.763,31.763,0,0,1-6.86-1.576s8.012,3.28,6.434,4.822-8.52-1.378-8.52-1.378,9.224,4.663,7.261,5.636-8.945-2.618-8.945-2.618,8.408,4.681,6.1,5.758-6.923-3.913-8.5-2.372-10.757,3.153-15.943-1.3Z" transform="translate(-628.738 -1084.625)" fill="#f7b686"/>
            </g>
          </g>
          <g id="Group_596" data-name="Group 596" transform="translate(18.265 4.09)">
            <path id="Path_402" data-name="Path 402" d="M720.613,1105.832a.336.336,0,0,1-.174-.048c-.02-.011-2-1.174-3.186-.619a.342.342,0,1,1-.29-.62c1.514-.707,3.732.6,3.825.651a.342.342,0,0,1-.175.636Z" transform="translate(-716.766 -1104.335)" fill="#e08b65"/>
          </g>
          <g id="Group_597" data-name="Group 597" transform="translate(15.499 7.463)">
            <path id="Path_403" data-name="Path 403" d="M707.962,1122.159a.339.339,0,0,1-.18-.052h0a5.835,5.835,0,0,0-3.924-.717.342.342,0,1,1-.162-.664,6.434,6.434,0,0,1,4.447.8.342.342,0,0,1-.181.632Z" transform="translate(-703.435 -1120.592)" fill="#e08b65"/>
          </g>
          <g id="Group_598" data-name="Group 598" transform="translate(14.07 10.42)">
            <path id="Path_404" data-name="Path 404" d="M700.819,1136.471a.342.342,0,0,1-.175-.048c-.658-.393-2.585-1.285-3.585-.71a.342.342,0,0,1-.341-.593c1.552-.893,4.167.649,4.277.716a.342.342,0,0,1-.176.635Z" transform="translate(-696.547 -1134.843)" fill="#e08b65"/>
          </g>
        </g>
      </g>
      <g id="Group_662" data-name="Group 662" transform="translate(291.676 306.924)">
        <g id="Group_607" data-name="Group 607" transform="translate(81.321 138.669)">
          <g id="Group_601" data-name="Group 601" transform="translate(12.271 10.968)">
            <path id="Path_405" data-name="Path 405" d="M1394.638,1273.012h0a1.873,1.873,0,0,1,1.5,2.175l-2.89,15.681a1.873,1.873,0,0,1-2.176,1.5h0a1.873,1.873,0,0,1-1.5-2.175l2.89-15.68A1.873,1.873,0,0,1,1394.638,1273.012Z" transform="translate(-1389.542 -1272.981)" fill="#f7b686"/>
          </g>
          <g id="Group_602" data-name="Group 602" transform="translate(7.227 10.101)">
            <path id="Path_406" data-name="Path 406" d="M1370.671,1268.835h0a1.874,1.874,0,0,1,1.5,2.176l-3.232,17.536a1.873,1.873,0,0,1-2.175,1.5h0a1.873,1.873,0,0,1-1.5-2.175l3.232-17.536A1.873,1.873,0,0,1,1370.671,1268.835Z" transform="translate(-1365.233 -1268.804)" fill="#f7b686"/>
          </g>
          <g id="Group_603" data-name="Group 603">
            <path id="Path_407" data-name="Path 407" d="M1343.487,1220.894l.436.5a2.265,2.265,0,0,1-.22,3.186l-9.125,7.946a2.265,2.265,0,0,1-3.186-.22l-.437-.5a2.265,2.265,0,0,1,.221-3.186l9.125-7.945A2.265,2.265,0,0,1,1343.487,1220.894Z" transform="translate(-1330.404 -1220.121)" fill="#f7b686"/>
          </g>
          <g id="Group_604" data-name="Group 604" transform="translate(3.166 9.235)">
            <path id="Path_408" data-name="Path 408" d="M1350.459,1264.658h0a1.873,1.873,0,0,1,1.5,2.175l-2.591,14.057a1.873,1.873,0,0,1-2.176,1.5h0a1.873,1.873,0,0,1-1.5-2.175l2.591-14.057A1.874,1.874,0,0,1,1350.459,1264.658Z" transform="translate(-1345.661 -1264.627)" fill="#f7b686"/>
          </g>
          <g id="Group_605" data-name="Group 605" transform="translate(5.747 2.657)">
            <path id="Path_409" data-name="Path 409" d="M1374.556,1232.925s3.647,10.032-.363,16.469c-1.388,2.228-15.16-.7-15.949-3.537s1.886-12.156,1.886-12.156Z" transform="translate(-1358.099 -1232.925)" fill="#f7b686"/>
          </g>
          <g id="Group_606" data-name="Group 606" transform="translate(17.252 11.815)">
            <path id="Path_410" data-name="Path 410" d="M1418.337,1277.093h0a1.869,1.869,0,0,1,1.5,2.17l-2.585,14.028a1.869,1.869,0,0,1-2.171,1.495h0a1.869,1.869,0,0,1-1.5-2.171l2.586-14.028A1.869,1.869,0,0,1,1418.337,1277.093Z" transform="translate(-1413.549 -1277.062)" fill="#f7b686"/>
          </g>
        </g>
        <g id="Group_609" data-name="Group 609" transform="translate(64.732 41.15)">
          <g id="Group_608" data-name="Group 608">
            <path id="Path_411" data-name="Path 411" d="M1271.995,852.429c-1.885-20.746-6.207-50.406-16.1-73.9a71.062,71.062,0,0,0-5.036-10.459c-1.439-2.391,1.137-7.648,5.2-10.154,3.814-2.352-.593-8.341.779-7.743,5.064,2.209,12.279,6.15,14.932,12.174,9.22,20.931,15.682,54.534,17.92,89.393Z" transform="translate(-1250.454 -750.136)" fill="#f7b686"/>
          </g>
        </g>
        <g id="Group_610" data-name="Group 610" transform="translate(44.779 113.762)">
          <path id="Path_412" data-name="Path 412" d="M1200.226,1110.181q-.026.589-.052,1.209-.068,1.529-.162,3.26c-.193,3.479-.471,7.577-.876,12.283-.04.482-.083.973-.127,1.468-.037.41-.074.824-.114,1.243q-.2,2.209-.444,4.582c0,.063-.011.127-.018.193q-.355,3.457-.794,7.259-.558,4.861-1.28,10.274c-.881,6.6-1.95,13.809-3.251,21.627-1.282,7.7-2.614,15.415-3.948,22.941-10.647-.118-22.748-.09-34.865.026l.657-2.369,0,0v0l3.495-48.86,1.183-22.073.013-.261.355-6.617,0-.081.215-4.043.029-.508.21-3.935,31.717-6.122,8.219-1.586S1200.493,1103.482,1200.226,1110.181Z" transform="translate(-1154.293 -1100.084)" fill="#436e8e"/>
        </g>
        <g id="Group_611" data-name="Group 611" transform="translate(17.344 123.031)">
          <path id="Path_413" data-name="Path 413" d="M1022.081,1157.649c.37,3.065,17.7,2.693,38.923.007s37.738-7.283,37.368-10.348-17.489-3.438-38.709-.752S1021.71,1154.583,1022.081,1157.649Z" transform="translate(-1022.075 -1144.754)" fill="#2d2d2d"/>
        </g>
        <g id="Group_612" data-name="Group 612" transform="translate(6.39 129.391)">
          <path id="Path_414" data-name="Path 414" d="M1029.406,1177.767l-.778,2.809-1.282,4.628-3.032,10.951s0,0,0,0l-15.954,57.6-.015.055c-.006.031-.011.048-.013.054v0l-.66,2.373c-12.437.123-25.4.339-38.389.6l13.081-72.174a4.587,4.587,0,0,1,.443-1.19,4.462,4.462,0,0,1,2.684-2.18c2.314-.666,6.69-1.678,11.815-2.677.007,0,.013,0,.02,0l.11-.02.114-.022c3.731-.725,7.846-1.437,11.843-2,1.347-.193,2.682-.366,3.986-.517C1022.353,1175.006,1029.789,1175,1029.406,1177.767Z" transform="translate(-969.281 -1175.407)" fill="#436e8e"/>
        </g>
        <g id="Group_613" data-name="Group 613" transform="translate(11.534 35.922)">
          <path id="Path_415" data-name="Path 415" d="M1006.974,741.157s6.028-16.959,27.5-16.188,37.687,28.989,41.7,89.636c0,0-35.162-7.71-76.353,10.277C999.826,824.882,982.964,767.462,1006.974,741.157Z" transform="translate(-994.072 -724.943)" fill="#fc0"/>
        </g>
        <g id="Group_614" data-name="Group 614" transform="translate(11.534 35.867)">
          <path id="Path_416" data-name="Path 416" d="M994.072,736.537l13.034,13.122s39.1,3.912,49.484,2.029,12-9.515,12-9.515-2.413-14.072-28.667-16.909c-1.784-.193-3.544-.371-5.443-.507-3.187-.226-5.329.087-8.471.065C1005.15,724.674,994.072,736.537,994.072,736.537Z" transform="translate(-994.072 -724.674)" fill="#fc0"/>
        </g>
        <g id="Group_615" data-name="Group 615" transform="translate(65.797 19.726)">
          <path id="Path_417" data-name="Path 417" d="M1255.646,662.224l-.057-.5c.027,0,2.762-.337,3.719-2.042a3.547,3.547,0,0,0-.171-3.3c-.293-.634-.565-1.208-.813-1.734-1.73-3.66-2.377-5.03-1.452-7.771l.474.16c-.86,2.549-.283,3.771,1.431,7.4.249.527.521,1.1.815,1.738a4.005,4.005,0,0,1,.152,3.752C1258.66,661.859,1255.768,662.21,1255.646,662.224Z" transform="translate(-1255.589 -646.885)" fill="#2f1a31"/>
        </g>
        <g id="Group_616" data-name="Group 616" transform="translate(52.372 19.806)">
          <path id="Path_418" data-name="Path 418" d="M1205.831,647.271a12.671,12.671,0,0,0,.846,8.977c2.3,4.814-1.173,7.717-4.807,5.539s-5.68,2.54-10.264-.75S1205.831,647.271,1205.831,647.271Z" transform="translate(-1190.886 -647.271)" fill="#2f1a31"/>
        </g>
        <g id="Group_617" data-name="Group 617" transform="translate(42.326 15.622)">
          <path id="Path_419" data-name="Path 419" d="M1142.531,647.5a5.938,5.938,0,0,0,5.224-2.943l3.374-5.822.979-1.69,5.757-9.936-2.075,10.76-1.246,6.458-.355,1.841a2.985,2.985,0,0,0,2.073,3.416l.026.008c.647,1.4,1.439,4.185-2,4.844-4.038.775-9.992-3.032-11.818-6.931C1142.482,647.5,1142.519,647.5,1142.531,647.5Z" transform="translate(-1142.47 -627.105)" fill="#f7b686"/>
        </g>
        <g id="Group_618" data-name="Group 618" transform="translate(50.979 25.453)">
          <path id="Path_420" data-name="Path 420" d="M1184.19,676.1c-.005.06-.009.12-.01.181-.158,3.53,3.389,5.61,3.389,5.61l.025-.017,1.246-6.458c-1.094-.556-2.672-1.181-3.682-.825A1.539,1.539,0,0,0,1184.19,676.1Z" transform="translate(-1184.175 -674.486)" fill="#dd9666"/>
        </g>
        <g id="Group_619" data-name="Group 619" transform="translate(47.698 4.776)">
          <path id="Path_421" data-name="Path 421" d="M1188.866,588.693c.828-6.948-3.066-13.125-8.7-13.8s-10.868,4.417-11.7,11.365,3.066,13.124,8.7,13.8S1188.038,595.641,1188.866,588.693Z" transform="translate(-1168.361 -574.838)" fill="#f7b686"/>
        </g>
        <g id="Group_621" data-name="Group 621" transform="translate(54.868 16.62)">
          <g id="Group_620" data-name="Group 620">
            <path id="Path_422" data-name="Path 422" d="M1206.005,632.742a.234.234,0,0,0,.078-.436,2.53,2.53,0,0,0-3.082.311.236.236,0,0,0-.031.329.257.257,0,0,0,.329.031,4,4,0,0,1,2.56-.261A.234.234,0,0,0,1206.005,632.742Z" transform="translate(-1202.917 -631.919)" fill="#060633"/>
          </g>
        </g>
        <g id="Group_623" data-name="Group 623" transform="translate(64.261 18.176)">
          <g id="Group_622" data-name="Group 622">
            <path id="Path_423" data-name="Path 423" d="M1251,640.969a.234.234,0,0,0,.265-.355,2.53,2.53,0,0,0-2.9-1.1.235.235,0,0,0-.174.281.256.256,0,0,0,.28.175,4,4,0,0,1,2.407.911A.235.235,0,0,0,1251,640.969Z" transform="translate(-1248.186 -639.415)" fill="#060633"/>
          </g>
        </g>
        <g id="Group_624" data-name="Group 624" transform="translate(31.609 0)">
          <path id="Path_424" data-name="Path 424" d="M1122.778,559.451s-.74,4.339-6.28,4.433-9.574,1.953-9.31,5.967,8.08,13.208,1.246,15.594-4.758-3.334-11.922-2.8-7.312-8.969-1.845-13.82,5.225-19.441,23.227-16.65,9.66,16.424,9.66,16.424S1122.193,564.27,1122.778,559.451Z" transform="translate(-1090.824 -551.819)" fill="#2f1a31"/>
        </g>
        <g id="Group_625" data-name="Group 625" transform="translate(42.74 5.69)">
          <path id="Path_425" data-name="Path 425" d="M1148.99,607.762l-.039-.143a3.632,3.632,0,0,0,2.676-2.047c1.116-2.765-1.748-7.56-4.276-11.79-.67-1.122-1.3-2.183-1.858-3.19a7,7,0,0,1,.532-8.091c2.077-2.431,5.56-3.149,9.091-1.874a10.283,10.283,0,0,0,7.4.2,6.706,6.706,0,0,0,2.45-1.588l.112.1c-.033.039-3.388,3.822-10.012,1.431-3.471-1.253-6.892-.552-8.928,1.831a6.773,6.773,0,0,0-.514,7.923c.553,1,1.185,2.064,1.855,3.185,2.545,4.26,5.429,9.089,4.286,11.921A3.818,3.818,0,0,1,1148.99,607.762Z" transform="translate(-1144.466 -579.239)" fill="#fff"/>
        </g>
        <g id="Group_626" data-name="Group 626" transform="translate(34.412 127.306)">
          <path id="Path_426" data-name="Path 426" d="M1104.332,1170.656s42.352-8.09,56.084-4.274l-6.584,9.759-24.479,1.385Z" transform="translate(-1104.332 -1165.359)" fill="#436e8e"/>
        </g>
        <g id="Group_639" data-name="Group 639" transform="translate(41.859 32.857)">
          <g id="Group_627" data-name="Group 627" transform="translate(16.912 24.833)">
            <path id="Path_427" data-name="Path 427" d="M1231.487,863.7h0a.762.762,0,0,0,.534-.933l-8.8-32.356a.761.761,0,0,0-.932-.534h0a.762.762,0,0,0-.534.933l8.8,32.356A.762.762,0,0,0,1231.487,863.7Z" transform="translate(-1221.727 -829.847)" fill="#2f1a31"/>
          </g>
          <g id="Group_638" data-name="Group 638">
            <g id="Group_628" data-name="Group 628">
              <path id="Path_428" data-name="Path 428" d="M1141.631,729.842c2.259,8.3,10.192,13.377,17.719,11.33s11.8-10.439,9.54-18.744-5.206-14.733-17.719-11.33C1138.227,714.619,1139.372,721.538,1141.631,729.842Z" transform="translate(-1140.223 -710.169)" fill="#fff"/>
            </g>
            <g id="Group_629" data-name="Group 629" transform="translate(10.046 18.688)">
              <path id="Path_429" data-name="Path 429" d="M1201.4,800.232a14.768,14.768,0,0,1-12.763,3.362s1.594,5.547,8.008,3.8C1202.082,805.918,1201.4,800.232,1201.4,800.232Z" transform="translate(-1188.64 -800.232)" fill="#fc0"/>
            </g>
            <g id="Group_631" data-name="Group 631" transform="translate(6.92 9.198)">
              <g id="Group_630" data-name="Group 630">
                <path id="Path_430" data-name="Path 430" d="M1176.495,754.989a.3.3,0,0,0-.324-.479,3.3,3.3,0,0,0-2.6,3.1.308.308,0,0,0,.271.336.335.335,0,0,0,.336-.271,5.218,5.218,0,0,1,2.153-2.579A.305.305,0,0,0,1176.495,754.989Z" transform="translate(-1173.574 -754.499)" fill="#fc0"/>
              </g>
            </g>
            <g id="Group_633" data-name="Group 633" transform="translate(15.746 6.821)">
              <g id="Group_632" data-name="Group 632">
                <path id="Path_431" data-name="Path 431" d="M1220.062,744.544a.305.305,0,0,0,.229-.531,3.3,3.3,0,0,0-4.012-.515.306.306,0,0,0-.136.409.334.334,0,0,0,.409.137,5.228,5.228,0,0,1,3.333.425A.3.3,0,0,0,1220.062,744.544Z" transform="translate(-1216.111 -743.044)" fill="#fc0"/>
              </g>
            </g>
            <g id="Group_635" data-name="Group 635" transform="translate(17.451 11.606)">
              <g id="Group_634" data-name="Group 634">
                <path id="Path_432" data-name="Path 432" d="M1228.2,766.808a.3.3,0,0,0-.056-.575,3.3,3.3,0,0,0-3.762,1.484.308.308,0,0,0,.078.424.335.335,0,0,0,.424-.078,5.22,5.22,0,0,1,3.124-1.236A.3.3,0,0,0,1228.2,766.808Z" transform="translate(-1224.329 -766.104)" fill="#fc0"/>
              </g>
            </g>
            <g id="Group_637" data-name="Group 637" transform="translate(7.877 14.588)">
              <g id="Group_636" data-name="Group 636">
                <path id="Path_433" data-name="Path 433" d="M1182.058,781.181a.305.305,0,0,0-.056-.576,3.3,3.3,0,0,0-3.762,1.484.307.307,0,0,0,.078.424.335.335,0,0,0,.424-.078,5.222,5.222,0,0,1,3.124-1.236A.305.305,0,0,0,1182.058,781.181Z" transform="translate(-1178.187 -780.476)" fill="#fc0"/>
              </g>
            </g>
          </g>
        </g>
        <g id="Group_640" data-name="Group 640" transform="translate(46.464 14.129)">
          <path id="Path_434" data-name="Path 434" d="M1163.221,624.215c1.023,1.241,2.625,1.546,3.577.682a2.823,2.823,0,0,0-.129-3.81c-1.024-1.24-2.625-1.546-3.578-.682A2.824,2.824,0,0,0,1163.221,624.215Z" transform="translate(-1162.414 -619.914)" fill="#f7b686"/>
        </g>
        <g id="Group_641" data-name="Group 641" transform="translate(56.191 19.23)">
          <path id="Path_435" data-name="Path 435" d="M1210.593,645.389c0,.5-.286.9-.645.9s-.653-.4-.656-.893.286-.9.645-.9S1210.59,644.893,1210.593,645.389Z" transform="translate(-1209.292 -644.496)" fill="#060633"/>
        </g>
        <g id="Group_642" data-name="Group 642" transform="translate(63.531 20.613)">
          <path id="Path_436" data-name="Path 436" d="M1245.96,652.28c-.2.455-.622.709-.952.567a.8.8,0,0,1-.243-1.081c.2-.455.622-.708.952-.567A.8.8,0,0,1,1245.96,652.28Z" transform="translate(-1244.667 -651.16)" fill="#060633"/>
        </g>
        <g id="Group_644" data-name="Group 644" transform="translate(62.141 13.793)">
          <g id="Group_643" data-name="Group 643">
            <path id="Path_437" data-name="Path 437" d="M1241.879,618.918a5.9,5.9,0,0,0-1.045.835,9.2,9.2,0,0,0-1.842,2.717c-.055.12-.107.243-.158.366a.585.585,0,0,0-.022.061,4.288,4.288,0,0,1,.39.254c.063-.164.134-.326.206-.487a7.547,7.547,0,0,1,2.763-3.392C1242.074,619.159,1241.975,619.041,1241.879,618.918Zm0,0a5.9,5.9,0,0,0-1.045.835,9.2,9.2,0,0,0-1.842,2.717c-.055.12-.107.243-.158.366a.585.585,0,0,0-.022.061,4.288,4.288,0,0,1,.39.254c.063-.164.134-.326.206-.487a7.547,7.547,0,0,1,2.763-3.392C1242.074,619.159,1241.975,619.041,1241.879,618.918Zm0,0a5.9,5.9,0,0,0-1.045.835,9.2,9.2,0,0,0-1.842,2.717c-.055.12-.107.243-.158.366a.585.585,0,0,0-.022.061,4.288,4.288,0,0,1,.39.254c.063-.164.134-.326.206-.487a7.547,7.547,0,0,1,2.763-3.392C1242.074,619.159,1241.975,619.041,1241.879,618.918Zm0,0a5.9,5.9,0,0,0-1.045.835,9.2,9.2,0,0,0-1.842,2.717c-.055.12-.107.243-.158.366a.585.585,0,0,0-.022.061,4.288,4.288,0,0,1,.39.254c.063-.164.134-.326.206-.487a7.547,7.547,0,0,1,2.763-3.392C1242.074,619.159,1241.975,619.041,1241.879,618.918Zm0,0a5.9,5.9,0,0,0-1.045.835,9.2,9.2,0,0,0-1.842,2.717c-.055.12-.107.243-.158.366a.585.585,0,0,0-.022.061,4.288,4.288,0,0,1,.39.254c.063-.164.134-.326.206-.487a7.547,7.547,0,0,1,2.763-3.392C1242.074,619.159,1241.975,619.041,1241.879,618.918Zm0,0a5.9,5.9,0,0,0-1.045.835,9.2,9.2,0,0,0-1.842,2.717c-.055.12-.107.243-.158.366a.585.585,0,0,0-.022.061,4.288,4.288,0,0,1,.39.254c.063-.164.134-.326.206-.487a7.547,7.547,0,0,1,2.763-3.392C1242.074,619.159,1241.975,619.041,1241.879,618.918Zm0,0a5.9,5.9,0,0,0-1.045.835,9.2,9.2,0,0,0-1.842,2.717c-.055.12-.107.243-.158.366a.585.585,0,0,0-.022.061,4.288,4.288,0,0,1,.39.254c.063-.164.134-.326.206-.487a7.547,7.547,0,0,1,2.763-3.392C1242.074,619.159,1241.975,619.041,1241.879,618.918Zm0,0a5.9,5.9,0,0,0-1.045.835,9.2,9.2,0,0,0-1.842,2.717c-.055.12-.107.243-.158.366a.585.585,0,0,0-.022.061,4.288,4.288,0,0,1,.39.254c.063-.164.134-.326.206-.487a7.547,7.547,0,0,1,2.763-3.392C1242.074,619.159,1241.975,619.041,1241.879,618.918Zm0,0a5.9,5.9,0,0,0-1.045.835,9.2,9.2,0,0,0-1.842,2.717c-.055.12-.107.243-.158.366a.585.585,0,0,0-.022.061,4.288,4.288,0,0,1,.39.254c.063-.164.134-.326.206-.487a7.547,7.547,0,0,1,2.763-3.392C1242.074,619.159,1241.975,619.041,1241.879,618.918Zm0,0a5.9,5.9,0,0,0-1.045.835,9.2,9.2,0,0,0-1.842,2.717c-.055.12-.107.243-.158.366a.585.585,0,0,0-.022.061,4.288,4.288,0,0,1,.39.254c.063-.164.134-.326.206-.487a7.547,7.547,0,0,1,2.763-3.392C1242.074,619.159,1241.975,619.041,1241.879,618.918Zm0,0a5.9,5.9,0,0,0-1.045.835,9.2,9.2,0,0,0-1.842,2.717c-.055.12-.107.243-.158.366a.585.585,0,0,0-.022.061,4.288,4.288,0,0,1,.39.254c.063-.164.134-.326.206-.487a7.547,7.547,0,0,1,2.763-3.392C1242.074,619.159,1241.975,619.041,1241.879,618.918Zm0,0a5.9,5.9,0,0,0-1.045.835,9.2,9.2,0,0,0-1.842,2.717c-.055.12-.107.243-.158.366a.585.585,0,0,0-.022.061,4.288,4.288,0,0,1,.39.254c.063-.164.134-.326.206-.487a7.547,7.547,0,0,1,2.763-3.392C1242.074,619.159,1241.975,619.041,1241.879,618.918Zm0,0a5.9,5.9,0,0,0-1.045.835,9.2,9.2,0,0,0-1.842,2.717c-.055.12-.107.243-.158.366a.585.585,0,0,0-.022.061,4.288,4.288,0,0,1,.39.254c.063-.164.134-.326.206-.487a7.547,7.547,0,0,1,2.763-3.392C1242.074,619.159,1241.975,619.041,1241.879,618.918Zm0,0a5.9,5.9,0,0,0-1.045.835,9.2,9.2,0,0,0-1.842,2.717c-.055.12-.107.243-.158.366a.585.585,0,0,0-.022.061,4.288,4.288,0,0,1,.39.254c.063-.164.134-.326.206-.487a7.547,7.547,0,0,1,2.763-3.392C1242.074,619.159,1241.975,619.041,1241.879,618.918Zm0,0a5.9,5.9,0,0,0-1.045.835,9.2,9.2,0,0,0-1.842,2.717c-.055.12-.107.243-.158.366a.585.585,0,0,0-.022.061,4.288,4.288,0,0,1,.39.254c.063-.164.134-.326.206-.487a7.547,7.547,0,0,1,2.763-3.392C1242.074,619.159,1241.975,619.041,1241.879,618.918Zm0,0a5.9,5.9,0,0,0-1.045.835,9.2,9.2,0,0,0-1.842,2.717c-.055.12-.107.243-.158.366a.585.585,0,0,0-.022.061,4.288,4.288,0,0,1,.39.254c.063-.164.134-.326.206-.487a7.547,7.547,0,0,1,2.763-3.392C1242.074,619.159,1241.975,619.041,1241.879,618.918Zm0,0a5.9,5.9,0,0,0-1.045.835,9.2,9.2,0,0,0-1.842,2.717c-.055.12-.107.243-.158.366a.585.585,0,0,0-.022.061,4.288,4.288,0,0,1,.39.254c.063-.164.134-.326.206-.487a7.547,7.547,0,0,1,2.763-3.392C1242.074,619.159,1241.975,619.041,1241.879,618.918Zm3.87.042a2.855,2.855,0,0,0-.405-.28,2.817,2.817,0,0,0-1.5-.388h0a3.236,3.236,0,0,0-.712.09,4.062,4.062,0,0,0-.837.307l-.02.006a3.976,3.976,0,0,0-.395.224,5.9,5.9,0,0,0-1.045.835,9.2,9.2,0,0,0-1.842,2.717c-.055.12-.107.243-.158.366a.579.579,0,0,0-.024.059c-.112.272-.21.543-.3.82a11.133,11.133,0,0,0-.541,3.727,5.839,5.839,0,0,0,1.768,4.422c.006,0,.013.011.02.015a2.934,2.934,0,0,0,1.488.631,3.241,3.241,0,0,0,1.111-.068,4.126,4.126,0,0,0,1.1-.445,5.485,5.485,0,0,0,.881-.631,8.807,8.807,0,0,0,2.16-3.019C1248.117,624.788,1247.78,620.577,1245.749,618.96Zm.706,8.269s0,0,0,.006c-.109.311-.232.62-.37.923a8.482,8.482,0,0,1-1.946,2.776,4.935,4.935,0,0,1-.829.62,3.746,3.746,0,0,1-1.053.443,2.565,2.565,0,0,1-2.163-.436l-.061-.048a5.552,5.552,0,0,1-1.615-4.356,10.762,10.762,0,0,1,.484-3.147c.088-.289.188-.576.3-.859.063-.164.134-.326.206-.487a7.547,7.547,0,0,1,2.763-3.392,3.75,3.75,0,0,1,1.067-.447,2.915,2.915,0,0,1,.692-.077,2.773,2.773,0,0,1,.353.031h0a2.454,2.454,0,0,1,.9.333,2.912,2.912,0,0,1,.281.2C1247.173,620.676,1247.556,624.083,1246.454,627.229Zm-4.575-8.311a5.9,5.9,0,0,0-1.045.835,9.2,9.2,0,0,0-1.842,2.717c-.055.12-.107.243-.158.366a.585.585,0,0,0-.022.061,4.288,4.288,0,0,1,.39.254c.063-.164.134-.326.206-.487a7.547,7.547,0,0,1,2.763-3.392C1242.074,619.159,1241.975,619.041,1241.879,618.918Zm0,0a5.9,5.9,0,0,0-1.045.835,9.2,9.2,0,0,0-1.842,2.717c-.055.12-.107.243-.158.366a.585.585,0,0,0-.022.061,4.288,4.288,0,0,1,.39.254c.063-.164.134-.326.206-.487a7.547,7.547,0,0,1,2.763-3.392C1242.074,619.159,1241.975,619.041,1241.879,618.918Zm0,0a5.9,5.9,0,0,0-1.045.835,9.2,9.2,0,0,0-1.842,2.717c-.055.12-.107.243-.158.366a.585.585,0,0,0-.022.061,4.288,4.288,0,0,1,.39.254c.063-.164.134-.326.206-.487a7.547,7.547,0,0,1,2.763-3.392C1242.074,619.159,1241.975,619.041,1241.879,618.918Zm0,0a5.9,5.9,0,0,0-1.045.835,9.2,9.2,0,0,0-1.842,2.717c-.055.12-.107.243-.158.366a.585.585,0,0,0-.022.061,4.288,4.288,0,0,1,.39.254c.063-.164.134-.326.206-.487a7.547,7.547,0,0,1,2.763-3.392C1242.074,619.159,1241.975,619.041,1241.879,618.918Zm0,0a5.9,5.9,0,0,0-1.045.835,9.2,9.2,0,0,0-1.842,2.717c-.055.12-.107.243-.158.366a.585.585,0,0,0-.022.061,4.288,4.288,0,0,1,.39.254c.063-.164.134-.326.206-.487a7.547,7.547,0,0,1,2.763-3.392C1242.074,619.159,1241.975,619.041,1241.879,618.918Zm0,0a5.9,5.9,0,0,0-1.045.835,9.2,9.2,0,0,0-1.842,2.717c-.055.12-.107.243-.158.366a.585.585,0,0,0-.022.061,4.288,4.288,0,0,1,.39.254c.063-.164.134-.326.206-.487a7.547,7.547,0,0,1,2.763-3.392C1242.074,619.159,1241.975,619.041,1241.879,618.918Zm0,0a5.9,5.9,0,0,0-1.045.835,9.2,9.2,0,0,0-1.842,2.717c-.055.12-.107.243-.158.366a.585.585,0,0,0-.022.061,4.288,4.288,0,0,1,.39.254c.063-.164.134-.326.206-.487a7.547,7.547,0,0,1,2.763-3.392C1242.074,619.159,1241.975,619.041,1241.879,618.918Zm0,0a5.9,5.9,0,0,0-1.045.835,9.2,9.2,0,0,0-1.842,2.717c-.055.12-.107.243-.158.366a.585.585,0,0,0-.022.061,4.288,4.288,0,0,1,.39.254c.063-.164.134-.326.206-.487a7.547,7.547,0,0,1,2.763-3.392C1242.074,619.159,1241.975,619.041,1241.879,618.918Zm0,0a5.9,5.9,0,0,0-1.045.835,9.2,9.2,0,0,0-1.842,2.717c-.055.12-.107.243-.158.366a.585.585,0,0,0-.022.061,4.288,4.288,0,0,1,.39.254c.063-.164.134-.326.206-.487a7.547,7.547,0,0,1,2.763-3.392C1242.074,619.159,1241.975,619.041,1241.879,618.918Zm0,0a5.9,5.9,0,0,0-1.045.835,9.2,9.2,0,0,0-1.842,2.717c-.055.12-.107.243-.158.366a.585.585,0,0,0-.022.061,4.288,4.288,0,0,1,.39.254c.063-.164.134-.326.206-.487a7.547,7.547,0,0,1,2.763-3.392C1242.074,619.159,1241.975,619.041,1241.879,618.918Zm0,0a5.9,5.9,0,0,0-1.045.835,9.2,9.2,0,0,0-1.842,2.717c-.055.12-.107.243-.158.366a.585.585,0,0,0-.022.061,4.288,4.288,0,0,1,.39.254c.063-.164.134-.326.206-.487a7.547,7.547,0,0,1,2.763-3.392C1242.074,619.159,1241.975,619.041,1241.879,618.918Zm0,0a5.9,5.9,0,0,0-1.045.835,9.2,9.2,0,0,0-1.842,2.717c-.055.12-.107.243-.158.366a.585.585,0,0,0-.022.061,4.288,4.288,0,0,1,.39.254c.063-.164.134-.326.206-.487a7.547,7.547,0,0,1,2.763-3.392C1242.074,619.159,1241.975,619.041,1241.879,618.918Zm0,0a5.9,5.9,0,0,0-1.045.835,9.2,9.2,0,0,0-1.842,2.717c-.055.12-.107.243-.158.366a.585.585,0,0,0-.022.061,4.288,4.288,0,0,1,.39.254c.063-.164.134-.326.206-.487a7.547,7.547,0,0,1,2.763-3.392C1242.074,619.159,1241.975,619.041,1241.879,618.918Zm0,0a5.9,5.9,0,0,0-1.045.835,9.2,9.2,0,0,0-1.842,2.717c-.055.12-.107.243-.158.366a.585.585,0,0,0-.022.061,4.288,4.288,0,0,1,.39.254c.063-.164.134-.326.206-.487a7.547,7.547,0,0,1,2.763-3.392C1242.074,619.159,1241.975,619.041,1241.879,618.918Zm0,0a5.9,5.9,0,0,0-1.045.835,9.2,9.2,0,0,0-1.842,2.717c-.055.12-.107.243-.158.366a.585.585,0,0,0-.022.061,4.288,4.288,0,0,1,.39.254c.063-.164.134-.326.206-.487a7.547,7.547,0,0,1,2.763-3.392C1242.074,619.159,1241.975,619.041,1241.879,618.918Zm0,0a5.9,5.9,0,0,0-1.045.835,9.2,9.2,0,0,0-1.842,2.717c-.055.12-.107.243-.158.366a.585.585,0,0,0-.022.061,4.288,4.288,0,0,1,.39.254c.063-.164.134-.326.206-.487a7.547,7.547,0,0,1,2.763-3.392C1242.074,619.159,1241.975,619.041,1241.879,618.918Z" transform="translate(-1237.967 -618.291)" fill="#6f4975"/>
          </g>
        </g>
        <g id="Group_645" data-name="Group 645" transform="translate(51.08 9.944)" opacity="0.3">
          <path id="Path_438" data-name="Path 438" d="M1185.236,603.965c-1.246,3.495-.4,7.507,1.894,8.962s5.161-.2,6.407-3.693.4-7.507-1.894-8.962S1186.482,600.471,1185.236,603.965Z" transform="translate(-1184.662 -599.744)" fill="#fff"/>
        </g>
        <g id="Group_646" data-name="Group 646" transform="translate(62.388 14.038)" opacity="0.3">
          <path id="Path_439" data-name="Path 439" d="M1239.8,623.7c-1.25,3.511-.624,7.554,1.4,9.031s4.675-.172,5.926-3.683.624-7.554-1.4-9.031S1241.054,620.185,1239.8,623.7Z" transform="translate(-1239.16 -619.472)" fill="#fff"/>
        </g>
        <g id="Group_648" data-name="Group 648" transform="translate(50.881 9.038)">
          <g id="Group_647" data-name="Group 647">
            <path id="Path_440" data-name="Path 440" d="M1193.159,597.794a5.107,5.107,0,0,0-1.7-1.825,3.773,3.773,0,0,0-3.315-.368,5.4,5.4,0,0,0-2.244,1.562,8.166,8.166,0,0,0-1.348,2.15c-.085.2-.166.4-.241.607a10.351,10.351,0,0,0-.449,5.322v0a6.463,6.463,0,0,0,2.365,4.154c.072.053.147.1.223.149a3.763,3.763,0,0,0,1.58.574,3.714,3.714,0,0,0,.936-.013,4.185,4.185,0,0,0,.789-.188,6.791,6.791,0,0,0,3.843-4.323c.072-.2.14-.406.2-.611.081-.278.149-.559.206-.842A9.329,9.329,0,0,0,1193.159,597.794Zm.173,7.165q-.072.24-.158.48a7.49,7.49,0,0,1-2.222,3.289.107.107,0,0,0-.011.008l0,0,0,0s0,0,0,0a4.5,4.5,0,0,1-1.328.747,3.765,3.765,0,0,1-.543.136,3.391,3.391,0,0,1-2.371-.465,2.668,2.668,0,0,1-.23-.158,6.308,6.308,0,0,1-2.241-4.4,9.879,9.879,0,0,1-.068-1.148c0-.226.009-.452.024-.68v0a9.981,9.981,0,0,1,.565-2.7,8.846,8.846,0,0,1,.419-.973c.1-.2.208-.4.324-.585,0,0,0,0,0,0s0,0,0-.006a0,0,0,0,0,0,0,5.628,5.628,0,0,1,2.807-2.474,3.318,3.318,0,0,1,2.925.322,4.677,4.677,0,0,1,1.514,1.6,8.847,8.847,0,0,1,.813,6.148C1193.492,604.393,1193.419,604.676,1193.332,604.959Z" transform="translate(-1183.702 -595.377)" fill="#6f4975"/>
          </g>
        </g>
        <g id="Group_650" data-name="Group 650" transform="translate(59.66 17.766)">
          <g id="Group_649" data-name="Group 649">
            <path id="Path_441" data-name="Path 441" d="M1229.705,639.336a.425.425,0,0,1-.257-.13h0a3.85,3.85,0,0,0-2.975-.9.442.442,0,0,1-.458-.394.418.418,0,0,1,.393-.452,4.6,4.6,0,0,1,3.661,1.154.429.429,0,0,1-.019.6A.412.412,0,0,1,1229.705,639.336Z" transform="translate(-1226.013 -637.438)" fill="#6f4975"/>
          </g>
        </g>
        <g id="Group_651" data-name="Group 651" transform="translate(56.275 25.177)">
          <path id="Path_442" data-name="Path 442" d="M1214.7,674.878a.217.217,0,0,1-.154-.064,4.618,4.618,0,0,0-4.554-1,.219.219,0,0,1-.15-.412,5.066,5.066,0,0,1,5.013,1.1.219.219,0,0,1-.154.375Z" transform="translate(-1209.7 -673.155)" fill="#2f1a31"/>
        </g>
        <g id="Group_652" data-name="Group 652" transform="translate(11.747 46.669)">
          <path id="Path_443" data-name="Path 443" d="M1014.391,789.359c-.872,1.378-5.869-.22-11.16-3.57s-8.874-7.183-8-8.561,5.869.22,11.16,3.57S1015.264,787.98,1014.391,789.359Z" transform="translate(-995.099 -776.733)" fill="#bf9b0a"/>
        </g>
        <g id="Group_654" data-name="Group 654" transform="translate(0 48.166)">
          <g id="Group_653" data-name="Group 653">
            <path id="Path_444" data-name="Path 444" d="M992.042,824.317c-9.5,5.033-28.059,1.609-31.431-3.513-3.922-5.957-.574-15.022,3.581-21.277,2.126-3.2,2.355-6.31-1-10.224-1.4-1.626-2.762-2.756-7.218-4.616-2.153-.9-4.3-1.186-5.5.362a57.8,57.8,0,0,0-5.847,9.245c-6.212,11.482-7.545,22.661-4.732,31.276,3.946,12.091,19.866,28.03,57.538,14.773C999.216,839.712,993.594,823.494,992.042,824.317Z" transform="translate(-938.486 -783.95)" fill="#f7b686"/>
          </g>
        </g>
        <g id="Group_660" data-name="Group 660" transform="translate(53.555 75.966)">
          <g id="Group_656" data-name="Group 656">
            <g id="Group_655" data-name="Group 655">
              <path id="Path_445" data-name="Path 445" d="M1196.59,930.5s1.491-8.1,5.611-10.6,11.272-2.578,9.048-.486a31.758,31.758,0,0,1-5.806,3.979s7.841-3.673,7.905-1.467-6.785,5.334-6.785,5.334,9.678-3.627,9.065-1.524-7.985,4.807-7.985,4.807,9.139-3.015,8.369-.589-7.568,2.442-7.5,4.648-.423,10.988-6.532,11.918Z" transform="translate(-1196.59 -917.928)" fill="#f7b686"/>
            </g>
          </g>
          <g id="Group_657" data-name="Group 657" transform="translate(5.669 5.122)">
            <path id="Path_446" data-name="Path 446" d="M1224.255,945.448a.355.355,0,0,1-.1-.016.342.342,0,0,1-.223-.43c.5-1.593,2.966-2.342,3.07-2.372a.342.342,0,0,1,.2.655c-.022.006-2.219.676-2.613,1.924A.342.342,0,0,1,1224.255,945.448Z" transform="translate(-1223.912 -942.615)" fill="#e08b65"/>
          </g>
          <g id="Group_658" data-name="Group 658" transform="translate(6.239 8.989)">
            <path id="Path_447" data-name="Path 447" d="M1227,964.5a.342.342,0,0,1-.3-.507,6.43,6.43,0,0,1,3.6-2.729.342.342,0,0,1,.183.659,5.834,5.834,0,0,0-3.186,2.4A.342.342,0,0,1,1227,964.5Z" transform="translate(-1226.656 -961.251)" fill="#e08b65"/>
          </g>
          <g id="Group_659" data-name="Group 659" transform="translate(7.525 12.273)">
            <path id="Path_448" data-name="Path 448" d="M1233.2,980.169a.328.328,0,0,1-.076-.009.341.341,0,0,1-.258-.409c.395-1.747,3.3-2.625,3.423-2.662a.342.342,0,0,1,.194.656c-.734.218-2.7,1.031-2.95,2.157A.342.342,0,0,1,1233.2,980.169Z" transform="translate(-1232.854 -977.076)" fill="#e08b65"/>
          </g>
        </g>
        <g id="Group_661" data-name="Group 661" transform="translate(44.431 138.434)">
          <path id="Path_449" data-name="Path 449" d="M1152.965,1291.126a.339.339,0,0,1-.084-.01.348.348,0,0,1-.253-.422c.536-2.15,13.159-52.728,16.666-60.149a29.037,29.037,0,0,1,10.369-11.511.348.348,0,0,1,.349.6,28.3,28.3,0,0,0-10.089,11.207c-3.478,7.359-16.489,59.495-16.62,60.02A.347.347,0,0,1,1152.965,1291.126Z" transform="translate(-1152.617 -1218.987)" fill="#020202"/>
        </g>
      </g>
      <g id="Group_663" data-name="Group 663" transform="translate(293.334 358.127)">
        <path id="Path_450" data-name="Path 450" d="M952.789,848.066a.343.343,0,0,1-.294-.166,41.309,41.309,0,0,1-5.876-18.057,46.671,46.671,0,0,1,1.5-15.747,53.692,53.692,0,0,1,6.715-15.366.342.342,0,0,1,.561.391,52.975,52.975,0,0,0-6.621,15.173A45.984,45.984,0,0,0,947.3,829.8a40.631,40.631,0,0,0,5.78,17.746.342.342,0,0,1-.292.518Z" transform="translate(-946.476 -798.585)" fill="#fbefc2"/>
      </g>
    </g>
  </g>
</svg>
