<svg xmlns="http://www.w3.org/2000/svg" width="223.14" height="280.82" viewBox="0 0 223.14 280.82">
  <g id="Group_3198" data-name="Group 3198" transform="translate(-3152.049 -174.403)">
    <g id="Group_3192" data-name="Group 3192" transform="translate(3152.049 267.634)">
      <path id="Path_7095" data-name="Path 7095" d="M3193.078,508.234c-2.318,6.294-9.744,4.254-19.3-1.738-11.413-7.156-26.106-28.88-20.493-43.947v0a17.716,17.716,0,0,1,2.056-3.933c10.373-14.924,37.689,33.962,38.36,41.481A19.238,19.238,0,0,1,3193.078,508.234Z" transform="translate(-3152.05 -455.795)" fill="#fc0"/>
      <path id="Path_7096" data-name="Path 7096" d="M3193.078,521.864c-2.318,6.294-9.744,4.253-19.3-1.738-11.413-7.156-26.106-28.88-20.493-43.947C3156.887,490.25,3166.718,513.358,3193.078,521.864Z" transform="translate(-3152.05 -469.425)" fill="#fc0"/>
      <path id="Path_7097" data-name="Path 7097" d="M3188.245,471.421c2.465,3.5,5.992,9.679,4.849,10.615-1.167.955-7.237-3.529-10.993-9.422-2.564-4.024-4.522-9.444-3.409-10.177C3179.951,461.607,3185.031,466.852,3188.245,471.421Z" transform="translate(-3169.651 -460.178)" fill="#fc0"/>
    </g>
    <g id="Group_3193" data-name="Group 3193" transform="translate(3200.408 329.591)">
      <path id="Path_7098" data-name="Path 7098" d="M3399.677,668.111c0,27.278-19.137,59.32-49.542,59.32-18.841,0-34.345-11.535-43.409-26.957a62.033,62.033,0,0,1-8.717-31.031c0-27.946,30.5-26.614,49.83-26.614,21.2,0,46.365-1.624,51.058,18.119A30.543,30.543,0,0,1,3399.677,668.111Z" transform="translate(-3298.008 -642.796)" fill="#fc0"/>
      <path id="Path_7099" data-name="Path 7099" d="M3417.269,704.744c0,27.278-19.137,59.32-49.542,59.32-18.841,0-34.346-11.535-43.41-26.957,18.882,8.888,72.67,27.3,92.171-39.527A30.544,30.544,0,0,1,3417.269,704.744Z" transform="translate(-3315.601 -679.429)" fill="#fc0"/>
      <path id="Path_7100" data-name="Path 7100" d="M3326.129,678.176c-3.949,6.44-1.156,15.6,5.626,19.2,7.168,3.8,16.921.393,19.586-7.166,2.532-7.181-2.347-15.229-9.337-17.487C3336.4,670.915,3329.413,672.822,3326.129,678.176Z" transform="translate(-3315.601 -662.365)" fill="#fc0"/>
    </g>
    <g id="Group_3194" data-name="Group 3194" transform="translate(3316.552 284.233)">
      <path id="Path_7101" data-name="Path 7101" d="M3668.583,556.448c-10.7,6.548-18.708,8.247-19.879-.9a25.777,25.777,0,0,1,.021-5.7c.751-7.514,28.573-56.111,38.794-41.078a19.88,19.88,0,0,1,3.077,13.177C3689.415,535.55,3677.879,550.759,3668.583,556.448Z" transform="translate(-3648.556 -505.894)" fill="#fc0"/>
      <path id="Path_7102" data-name="Path 7102" d="M3668.881,588.829c-10.7,6.548-18.708,8.247-19.879-.9,7.03-1.337,21.169-7.63,41.892-33.606C3689.714,567.932,3678.178,583.14,3668.881,588.829Z" transform="translate(-3648.855 -538.275)" fill="#fc0"/>
      <path id="Path_7103" data-name="Path 7103" d="M3684.36,541.222c-4.719,7.051-13.393,18.615-14.734,17.768-1.208-.764,3.381-11.728,10.936-20.911,4.209-5.115,9.777-10.211,10.635-9.523C3692.265,529.411,3685.828,539.028,3684.36,541.222Z" transform="translate(-3662.516 -521.006)" fill="#fc0"/>
    </g>
    <g id="Group_3197" data-name="Group 3197" transform="translate(3206.168 185.112)">
      <path id="Path_7104" data-name="Path 7104" d="M3327.425,370.105a19.691,19.691,0,0,1-2.59-6.906,18.91,18.91,0,0,1,18.927-22.346,19.577,19.577,0,0,1,4.849.629C3347.16,363.393,3327.425,370.105,3327.425,370.105Z" transform="translate(-3321.513 -296.414)" fill="#fc0"/>
      <path id="Path_7105" data-name="Path 7105" d="M3328.008,370.106a19.7,19.7,0,0,1-2.59-6.906c3.059-3.22,6.186-6.679,9.342-10.385,3.478-4.084,6.666-8.087,9.585-11.961a19.571,19.571,0,0,1,4.849.629Z" transform="translate(-3322.096 -296.415)" fill="#f2c308"/>
      <path id="Path_7106" data-name="Path 7106" d="M3419.944,392.3c-8.3,25.794-70.62,19.775-94.9-2.969-6.747-6.318-10.558-13.931-9.461-22.507,5.044-39.448,39.042-68.394,68.243-61.266,10.585,2.584,22.027,9.67,30.129,21.158C3424.339,341.426,3429.265,363.36,3419.944,392.3Z" transform="translate(-3315.392 -272.089)" fill="#fc0"/>
      <path id="Path_7107" data-name="Path 7107" d="M3450.667,416.1c-1.146,4.7-7.636,6.178-15.51,6.076-8.293-.105-18.123-1.964-24.866-3.672-9.652-2.444-27.943-8.5-33.338-15.6a6.007,6.007,0,0,1-1.393-5.137,17.754,17.754,0,0,1,9.4-11.513,23.593,23.593,0,0,1,16.343-1.727l32.612,7.961a23.154,23.154,0,0,1,15.041,11.215A17.359,17.359,0,0,1,3450.667,416.1Z" transform="translate(-3355.53 -325.136)" fill="#2d2d2d"/>
      <path id="Path_7108" data-name="Path 7108" d="M3453.766,454.647c-1.147,4.7-7.636,6.178-15.51,6.076-8.294-.105-18.124-1.964-24.866-3.672-9.653-2.444-27.944-8.5-33.338-15.6,19.285,4.163,52.536,9.311,72,.8A17.36,17.36,0,0,1,3453.766,454.647Z" transform="translate(-3358.628 -363.681)" fill="#2d2d2d"/>
      <path id="Path_7109" data-name="Path 7109" d="M3439.415,437.186c-8.3,25.794-70.62,19.775-94.905-2.969,16.508,7.055,66.192,25.827,81.43,3.4,13.1-19.285,10.217-49.99,7.481-66.016C3443.81,386.312,3448.735,408.245,3439.415,437.186Z" transform="translate(-3334.862 -316.975)" fill="#fc0"/>
      <path id="Path_7110" data-name="Path 7110" d="M3401.155,330.732c1.055,2.432,11.668.472,19.246-2.687,7.263-3.028,15.292-8.639,14.4-11-.793-2.1-8.482-1.261-13.5.015C3410.067,319.915,3400.006,328.082,3401.155,330.732Z" transform="translate(-3372.68 -279.64)" fill="#efc005"/>
      <path id="Path_7111" data-name="Path 7111" d="M3328.291,455.964c-1.484,7.07,1.176,14.775,3.021,14.744,1.936-.032,3.241-8.591,3.526-13.4.081-1.381.583-9.826-1.317-10.253C3332.027,446.719,3329.252,451.385,3328.291,455.964Z" transform="translate(-3323.728 -367.417)" fill="#fc0"/>
      <path id="Path_7112" data-name="Path 7112" d="M3464.761,395.757c-.062.653-4.69,1.1-9.208.426-7.329-1.089-13.343-4.962-13.052-5.733.133-.354,4.676.709,13.756,2.849C3463.553,395.019,3464.794,395.413,3464.761,395.757Z" transform="translate(-3400.381 -329.534)" fill="#2d2d2d"/>
      <g id="Group_3195" data-name="Group 3195" transform="translate(1.64 0)">
        <path id="Path_7113" data-name="Path 7113" d="M3325.415,284.158a28.071,28.071,0,0,1-4.809-12.7c-.948-7.11.187-18.221,10.973-30.777l2.217,1.9c-8.047,9.368-11.517,18.9-10.313,28.334a25.7,25.7,0,0,0,4.242,11.45Z" transform="translate(-3320.341 -229.43)" fill="#fc0"/>
        <circle id="Ellipse_40" data-name="Ellipse 40" cx="6.803" cy="6.803" r="6.803" transform="matrix(0.751, -0.66, 0.66, 0.751, 5.118, 8.986)" fill="#fc0"/>
        <circle id="Ellipse_41" data-name="Ellipse 41" cx="3.651" cy="3.651" r="3.651" transform="translate(10.225 10.313) rotate(-77.432)" fill="#ebbd08"/>
      </g>
      <g id="Group_3196" data-name="Group 3196" transform="translate(37.428 95.259)">
        <path id="Path_7114" data-name="Path 7114" d="M3440.971,515.034a14.649,14.649,0,0,1-9.659-7.36c-3.548-6.1-3.487-13.59-1.965-13.431,2.367.255,7.086,5.191,13.322,6.527,7.165,1.536,12.573.133,16.3.718.168.023.329.053.488.087C3463.2,502.377,3455.048,518.051,3440.971,515.034Z" transform="translate(-3428.36 -494.24)" fill="#fff"/>
        <path id="Path_7115" data-name="Path 7115" d="M3446.93,529.661a14.65,14.65,0,0,1-9.659-7.36c6.469.221,19.364-.2,27.657-6.186.168.023.328.053.488.087C3469.156,517,3461.007,532.678,3446.93,529.661Z" transform="translate(-3434.318 -508.868)" fill="#fff"/>
      </g>
      <path id="Path_7116" data-name="Path 7116" d="M3388.47,420.652a9.82,9.82,0,0,1,2.855-2.046,14.334,14.334,0,0,1,3.361-1.146,16.007,16.007,0,0,1,7.156.185,17.06,17.06,0,0,1,6.362,3.161,15.623,15.623,0,0,1,4.41,5.35c-2.124-.982-4.028-1.994-5.953-2.83a36.3,36.3,0,0,0-5.748-2.042,29.669,29.669,0,0,0-5.968-.892A38.151,38.151,0,0,0,3388.47,420.652Z" transform="translate(-3364.257 -347.426)" fill="#fc0"/>
      <path id="Path_7117" data-name="Path 7117" d="M3520.64,448.756a9.825,9.825,0,0,1,2.779-2.149,14.359,14.359,0,0,1,3.317-1.268,16,16,0,0,1,7.157-.076,17.058,17.058,0,0,1,6.473,2.927,15.62,15.62,0,0,1,4.6,5.186c-2.158-.9-4.1-1.846-6.052-2.612a36.324,36.324,0,0,0-5.819-1.831,29.657,29.657,0,0,0-6-.674A38.148,38.148,0,0,0,3520.64,448.756Z" transform="translate(-3452.637 -365.985)" fill="#fc0"/>
    </g>
    <path id="Path_7118" data-name="Path 7118" d="M3185.241,295.279a1.67,1.67,0,0,1-1.549-1.045c-.085-.212-8.747-21.381-23.81-36.344a1.67,1.67,0,1,1,2.354-2.369c15.563,15.459,24.194,36.572,24.554,37.463a1.67,1.67,0,0,1-1.548,2.3Z" transform="translate(-4.908 -53.917)" fill="#caeff9"/>
    <path id="Path_7119" data-name="Path 7119" d="M3261.246,220.224a1.671,1.671,0,0,1-1.663-1.541c-.018-.228-1.887-23.024-11.733-41.835a1.67,1.67,0,0,1,2.959-1.549c10.172,19.434,12.029,42.168,12.1,43.126a1.669,1.669,0,0,1-1.536,1.794C3261.333,220.222,3261.289,220.224,3261.246,220.224Z" transform="translate(-63.933 0)" fill="#caeff9"/>
    <path id="Path_7120" data-name="Path 7120" d="M3698.112,385.235a1.67,1.67,0,0,1-1.027-2.987c.758-.59,18.816-14.524,40.034-20.09a1.67,1.67,0,0,1,.847,3.231c-20.537,5.387-38.649,19.354-38.83,19.495A1.664,1.664,0,0,1,3698.112,385.235Z" transform="translate(-364.024 -125.511)" fill="#caeff9"/>
    <path id="Path_7121" data-name="Path 7121" d="M3685.776,282.179a1.67,1.67,0,0,1-1.374-2.617c.545-.792,13.556-19.526,32.105-31.234a1.67,1.67,0,1,1,1.783,2.824c-17.955,11.333-31.007,30.115-31.137,30.3A1.668,1.668,0,0,1,3685.776,282.179Z" transform="translate(-355.777 -49.26)" fill="#caeff9"/>
    <rect id="Rectangle_1940" data-name="Rectangle 1940" width="3.34" height="14.239" transform="matrix(0.964, -0.265, 0.265, 0.964, 3240.1, 198.611)" fill="#f6b35b"/>
    <rect id="Rectangle_1941" data-name="Rectangle 1941" width="14.239" height="3.34" transform="translate(3332.039 330.835) rotate(-84.283)" fill="#fbefc2"/>
    <rect id="Rectangle_1942" data-name="Rectangle 1942" width="14.239" height="3.34" transform="translate(3280.799 257.605) rotate(-53.993)" fill="#f6b35b"/>
    <rect id="Rectangle_1943" data-name="Rectangle 1943" width="14.239" height="3.34" transform="translate(3181.635 303.93) rotate(-53.993)" fill="#f6b35b"/>
    <rect id="Rectangle_1944" data-name="Rectangle 1944" width="12.672" height="3.34" transform="translate(3330.289 199.808) rotate(-65.794)" fill="#ea4754"/>
    <rect id="Rectangle_1945" data-name="Rectangle 1945" width="12.672" height="3.34" transform="translate(3347.084 290.276) rotate(-65.794)" fill="#2d2d2d"/>
    <rect id="Rectangle_1946" data-name="Rectangle 1946" width="3.34" height="12.672" transform="matrix(0.823, -0.568, 0.568, 0.823, 3194.102, 231.066)" fill="#ea4754"/>
    <rect id="Rectangle_1947" data-name="Rectangle 1947" width="3.34" height="12.672" transform="matrix(0.823, -0.568, 0.568, 0.823, 3208.874, 313.178)" fill="#ea4754"/>
    <rect id="Rectangle_1948" data-name="Rectangle 1948" width="3.34" height="16.79" transform="translate(3304.985 205.471) rotate(-15.163)" fill="#92ef9a"/>
    <rect id="Rectangle_1949" data-name="Rectangle 1949" width="3.34" height="16.79" transform="translate(3307.18 297.796) rotate(-15.163)" fill="#92ef9a"/>
    <rect id="Rectangle_1950" data-name="Rectangle 1950" width="16.79" height="3.34" transform="matrix(0.361, -0.932, 0.932, 0.361, 3259.328, 207.717)" fill="#92ef9a"/>
    <rect id="Rectangle_1951" data-name="Rectangle 1951" width="16.791" height="3.34" transform="translate(3178.395 291.457) rotate(-68.818)" fill="#92ef9a"/>
    <ellipse id="Ellipse_42" data-name="Ellipse 42" cx="52.819" cy="13.695" rx="52.819" ry="13.695" transform="translate(3198.636 427.834)" fill="#f1f1f1"/>
  </g>
</svg>
