<svg xmlns="http://www.w3.org/2000/svg" width="202.884" height="213.561" viewBox="0 0 202.884 213.561">
  <g id="Group_3155" data-name="Group 3155" transform="translate(-1099.915 -249.036)">
    <g id="Group_3148" data-name="Group 3148" transform="translate(1138.908 249.036)">
      <path id="Path_522" data-name="Path 522" d="M1281.694,391.713a16.581,16.581,0,0,1-3.5-5.13,15.918,15.918,0,0,1,11.016-22.05,16.458,16.458,0,0,1,4.09-.453C1296.491,382.285,1281.694,391.713,1281.694,391.713Z" transform="translate(-1266.48 -331.995)" fill="#fc0"/>
      <path id="Path_523" data-name="Path 523" d="M1285.25,391.713a16.579,16.579,0,0,1-3.5-5.13c1.858-3.243,3.725-6.7,5.566-10.357,2.029-4.034,3.837-7.943,5.45-11.693a16.459,16.459,0,0,1,4.09-.453Z" transform="translate(-1270.036 -331.995)" fill="#e8bb08"/>
      <path id="Path_524" data-name="Path 524" d="M1381.908,364.208c-1.641,22.749-53.8,30.266-78.2,16.515-6.779-3.82-11.413-9.284-12.229-16.515-3.749-33.263,18.273-63.719,43.573-63.719a44.857,44.857,0,0,1,28.86,11.287C1375.347,321.731,1383.753,338.682,1381.908,364.208Z" transform="translate(-1276.751 -286.14)" fill="#fc0"/>
      <path id="Path_525" data-name="Path 525" d="M1257.781,314.237a23.635,23.635,0,0,1-8.041-8.126c-3.159-5.145-6.084-14.079-2.081-27.423l2.356.707c-2.987,9.956-2.4,18.474,1.754,25.318a21.624,21.624,0,0,0,7.177,7.357Z" transform="translate(-1244.048 -270.419)" fill="#fc0"/>
      <circle id="Ellipse_25" data-name="Ellipse 25" cx="5.726" cy="5.726" r="5.726" transform="translate(0 0.085)" fill="#fc0"/>
      <path id="Path_526" data-name="Path 526" d="M1400,410.619c0,4.565-5.011,7.376-11.47,9.045a87.723,87.723,0,0,1-21.066,2.2c-8.381-.081-24.545-1.536-30.374-6.845a5.88,5.88,0,0,1-2.165-4.4,17.621,17.621,0,0,1,5.39-12.664,18.618,18.618,0,0,1,13.019-5.243h28.255a18.563,18.563,0,0,1,14.537,6.919A17.525,17.525,0,0,1,1400,410.619Z" transform="translate(-1308.382 -352.645)" fill="#2d2d2d"/>
      <path id="Path_527" data-name="Path 527" d="M1405.6,428.511c0,4.565-5.011,7.376-11.469,9.045a87.723,87.723,0,0,1-21.066,2.2c-8.381-.081-24.545-1.536-30.374-6.845,16.6-.5,44.817-3.222,59.038-15.387A17.525,17.525,0,0,1,1405.6,428.511Z" transform="translate(-1313.979 -370.536)" fill="#2d2d2d"/>
      <path id="Path_528" data-name="Path 528" d="M1414.611,393.394c-1.641,22.749-53.8,30.266-78.2,16.516,14.906,2.474,59.28,7.906,67.264-13.472,6.866-18.385-1.623-42.916-7.059-55.475C1408.05,350.917,1416.456,367.868,1414.611,393.394Z" transform="translate(-1309.454 -315.326)" fill="#fc0"/>
      <path id="Path_529" data-name="Path 529" d="M1343.743,333.1c1.348,1.778,9.636-1.943,15.2-6.039,5.334-3.925,10.78-10.117,9.579-11.869-1.067-1.556-7.187.662-11.036,2.707C1348.872,322.475,1342.274,331.162,1343.743,333.1Z" transform="translate(-1314.59 -296.365)" fill="#f3c404"/>
      <path id="Path_530" data-name="Path 530" d="M1300.948,486.158c.2,6.077,3.911,11.846,5.413,11.453,1.576-.413.935-7.671.208-11.661-.208-1.145-1.485-8.151-3.123-8.121C1302.157,477.852,1300.82,482.222,1300.948,486.158Z" transform="translate(-1283.871 -414.024)" fill="#fc0"/>
      <g id="Group_3145" data-name="Group 3145" transform="translate(67.987 44.496)">
        <g id="Group_3144" data-name="Group 3144">
          <path id="Path_531" data-name="Path 531" d="M1505.02,421.856a8.231,8.231,0,1,1-.722-3.365A8.224,8.224,0,0,1,1505.02,421.856Z" transform="translate(-1487.163 -412.226)" fill="#393760"/>
          <path id="Path_532" data-name="Path 532" d="M1493.16,410a8.227,8.227,0,1,1-8.226,8.224A8.218,8.218,0,0,1,1493.16,410Zm0-1.406a9.63,9.63,0,1,0,9.63,9.63,9.51,9.51,0,0,0-.847-3.944,9.635,9.635,0,0,0-8.783-5.686Z" transform="translate(-1483.529 -408.592)" fill="#46aed2"/>
        </g>
        <path id="Path_533" data-name="Path 533" d="M1504.316,418.462c-3.071,7.423-10.69,7.211-15.169,6.348a8.225,8.225,0,0,1,15.169-6.348Z" transform="translate(-1487.184 -412.223)" fill="#2f4572"/>
        <circle id="Ellipse_26" data-name="Ellipse 26" cx="2.73" cy="2.73" r="2.73" transform="translate(3.812 4.169)" fill="#b1eced"/>
        <path id="Path_534" data-name="Path 534" d="M1524.492,448.784c.447.3-.161,3.165-2.2,4.261-1.809.974-4.205.261-4.261-.267-.041-.387,1.2-.493,3.278-1.751C1523.5,449.7,1524.182,448.575,1524.492,448.784Z" transform="translate(-1508.411 -437.557)" fill="#b1eced"/>
      </g>
      <g id="Group_3147" data-name="Group 3147" transform="translate(31.502 44.495)">
        <g id="Group_3146" data-name="Group 3146">
          <path id="Path_535" data-name="Path 535" d="M1374.188,421.854a8.23,8.23,0,1,1-.722-3.365A8.224,8.224,0,0,1,1374.188,421.854Z" transform="translate(-1356.332 -412.224)" fill="#f1c206"/>
          <path id="Path_536" data-name="Path 536" d="M1362.328,410a8.227,8.227,0,1,1-8.226,8.224,8.218,8.218,0,0,1,8.226-8.224Zm0-1.406a9.63,9.63,0,1,0,9.63,9.63,9.518,9.518,0,0,0-.847-3.944,9.636,9.636,0,0,0-8.783-5.686Z" transform="translate(-1352.697 -408.59)" fill="#fbefc2"/>
        </g>
        <path id="Path_537" data-name="Path 537" d="M1373.484,418.46c-3.07,7.423-10.69,7.211-15.169,6.348a8.225,8.225,0,0,1,15.169-6.348Z" transform="translate(-1356.352 -412.221)" fill="#fc0"/>
        <circle id="Ellipse_27" data-name="Ellipse 27" cx="2.73" cy="2.73" r="2.73" transform="translate(3.812 4.169)" fill="#fff"/>
        <path id="Path_538" data-name="Path 538" d="M1393.661,448.782c.447.3-.162,3.165-2.2,4.261-1.809.974-4.205.261-4.261-.266-.041-.387,1.2-.493,3.278-1.751C1392.668,449.7,1393.349,448.573,1393.661,448.782Z" transform="translate(-1377.579 -437.555)" fill="#fff"/>
      </g>
      <path id="Path_539" data-name="Path 539" d="M1410.575,398.581c.08.546-3.616,1.834-7.444,2.187-6.211.573-11.9-1.394-11.817-2.082.038-.316,3.965-.354,11.817-.417C1409.44,398.218,1410.533,398.292,1410.575,398.581Z" transform="translate(-1349.042 -356.641)" fill="#2d2d2d"/>
      <circle id="Ellipse_28" data-name="Ellipse 28" cx="3.073" cy="3.073" r="3.073" transform="matrix(0.569, -0.822, 0.822, 0.569, 0.641, 5.053)" fill="#eec008"/>
    </g>
    <g id="Group_3149" data-name="Group 3149" transform="translate(1155.204 357.794)">
      <path id="Path_540" data-name="Path 540" d="M1383.748,660.332c0,22.96-16.108,49.93-41.7,49.93-15.859,0-28.909-9.709-36.538-22.689a52.215,52.215,0,0,1-7.337-26.119c0-23.522,25.673-22.4,41.943-22.4,17.844,0,39.026-1.367,42.976,15.25A25.727,25.727,0,0,1,1383.748,660.332Z" transform="translate(-1298.173 -639.024)" fill="#fc0"/>
      <path id="Path_541" data-name="Path 541" d="M1402.721,699.837c0,22.96-16.108,49.93-41.7,49.93-15.859,0-28.909-9.709-36.538-22.69,15.893,7.481,61.167,22.978,77.581-33.27A25.72,25.72,0,0,1,1402.721,699.837Z" transform="translate(-1317.146 -678.529)" fill="#fc0"/>
      <path id="Path_542" data-name="Path 542" d="M1326.007,673.436c-3.324,5.421-.973,13.135,4.735,16.163,6.034,3.2,14.243.331,16.486-6.031,2.131-6.044-1.975-12.819-7.859-14.719C1334.65,667.324,1328.771,668.929,1326.007,673.436Z" transform="translate(-1317.145 -660.127)" fill="#fc0"/>
    </g>
    <g id="Group_3150" data-name="Group 3150" transform="translate(1099.915 363.371)">
      <path id="Path_543" data-name="Path 543" d="M1146.422,660.173c5.1,2.428,2.814,8.495-2.944,16.043-6.877,9.014-26.218,19.656-38.414,13.791h0a14.906,14.906,0,0,1-3.138-2.026c-11.71-9.845,31.37-28.974,37.724-28.957A16.186,16.186,0,0,1,1146.422,660.173Z" transform="translate(-1099.915 -659.024)" fill="#fc0"/>
      <path id="Path_544" data-name="Path 544" d="M1159.735,663.146c5.1,2.428,2.814,8.495-2.944,16.043-6.877,9.014-26.218,19.656-38.414,13.791C1130.449,691.044,1150.575,684.585,1159.735,663.146Z" transform="translate(-1113.228 -661.996)" fill="#fc0"/>
      <path id="Path_545" data-name="Path 545" d="M1115.159,710.174c3.126-1.8,8.575-4.276,9.271-3.246.711,1.052-3.516,5.794-8.745,8.488-3.57,1.839-8.264,3.062-8.793,2.073C1106.295,716.37,1111.082,712.516,1115.159,710.174Z" transform="translate(-1104.91 -693.394)" fill="#fc0"/>
    </g>
    <g id="Group_3151" data-name="Group 3151" transform="translate(1247.392 331.999)">
      <path id="Path_546" data-name="Path 546" d="M1628.969,586.746c1.248,5.506,7.667,4.614,16.3.657,10.307-4.726,24.942-21.252,21.9-34.44v0a14.9,14.9,0,0,0-1.286-3.507c-7.028-13.588-35.164,24.229-36.545,30.431A16.191,16.191,0,0,0,1628.969,586.746Z" transform="translate(-1628.746 -546.527)" fill="#fc0"/>
      <path id="Path_547" data-name="Path 547" d="M1629.544,603.387c1.248,5.506,7.667,4.614,16.3.657,10.306-4.726,24.942-21.252,21.9-34.44C1663.2,580.954,1652.472,599.167,1629.544,603.387Z" transform="translate(-1629.321 -563.168)" fill="#fc0"/>
      <path id="Path_548" data-name="Path 548" d="M1699.027,559.254c-2.44,2.655-6.058,7.424-5.206,8.329.87.925,6.425-2.155,10.2-6.663,2.579-3.078,4.8-7.388,3.957-8.121C1707.021,551.969,1702.208,555.792,1699.027,559.254Z" transform="translate(-1675.582 -550.967)" fill="#fc0"/>
    </g>
    <path id="Path_549" data-name="Path 549" d="M1385.947,511.861a49.212,49.212,0,0,0,4.444,2.117,47.025,47.025,0,0,0,4.548,1.646,35.284,35.284,0,0,0,9.341,1.569,31.438,31.438,0,0,0,4.7-.271,33.426,33.426,0,0,0,4.619-1.027,44.486,44.486,0,0,0,8.837-4.033,24.462,24.462,0,0,1-8.164,5.846,25.383,25.383,0,0,1-4.907,1.515c-.421.088-.849.134-1.274.2s-.854.108-1.283.142c-.858.084-1.72.081-2.58.085a27.13,27.13,0,0,1-9.949-2.218,28.991,28.991,0,0,1-4.452-2.395,24.43,24.43,0,0,1-2.031-1.484A17.353,17.353,0,0,1,1385.947,511.861Z" transform="translate(-206.265 -189.53)" fill="#2d2d2d"/>
    <g id="Group_3152" data-name="Group 3152" transform="translate(1185.635 264.429)">
      <path id="Path_550" data-name="Path 550" d="M1678.259,536.8h0a5.581,5.581,0,0,1-7.623,2.043L1624.4,512.146a5.58,5.58,0,0,1-2.042-7.623h0a5.581,5.581,0,0,1,7.623-2.042l46.233,26.693A5.58,5.58,0,0,1,1678.259,536.8Z" transform="translate(-1561.844 -446.654)"/>
      <path id="Path_551" data-name="Path 551" d="M1485.279,346.643a35.568,35.568,0,1,1-6.04-19.838A35.578,35.578,0,0,1,1485.279,346.643Z" transform="translate(-1412.222 -309.16)" fill="#2d2d2d"/>
      <path id="Path_552" data-name="Path 552" d="M1480.821,325.051a49.966,49.966,0,0,1-7.949,10.225c-13.05,12.934-31.57,17.406-45.167,18.855a112.092,112.092,0,0,1-12.35.642,36.446,36.446,0,0,1,65.467-29.722Z" transform="translate(-1412.222 -307.619)" fill="#2d2d2d"/>
      <path id="Path_553" data-name="Path 553" d="M1464.757,504.021a91.919,91.919,0,0,0,41.889,0S1490.544,524.844,1464.757,504.021Z" transform="translate(-1448.732 -448.305)" fill="#fc0"/>
      <path id="Path_554" data-name="Path 554" d="M1475.892,320.813a37.488,37.488,0,1,0,6.364,20.9A37.451,37.451,0,0,0,1475.892,320.813ZM1444.773,366.9a25.182,25.182,0,1,1,25.184-25.185A25.221,25.221,0,0,1,1444.773,366.9Z" transform="translate(-1407.293 -304.231)"/>
    </g>
    <g id="Group_3154" data-name="Group 3154" transform="translate(1204.36 283.158)">
      <g id="Group_3153" data-name="Group 3153" transform="translate(0 0)">
        <path id="Path_555" data-name="Path 555" d="M1516.289,397.222a16.028,16.028,0,1,1-1.406-6.552A16.016,16.016,0,0,1,1516.289,397.222Z" transform="translate(-1481.515 -378.47)" fill="#e6b904"/>
        <path id="Path_556" data-name="Path 556" d="M1493.2,374.129a16.022,16.022,0,1,1-16.021,16.015,16,16,0,0,1,16.021-16.015Zm0-2.737a18.753,18.753,0,1,0,18.753,18.753,18.52,18.52,0,0,0-1.649-7.679,18.762,18.762,0,0,0-17.1-11.073Z" transform="translate(-1474.437 -371.392)" fill="#fbefc2"/>
      </g>
      <path id="Path_557" data-name="Path 557" d="M1514.909,390.633c-5.979,14.454-20.809,14.023-29.531,12.343a16.009,16.009,0,0,1,29.531-12.343Z" transform="translate(-1481.556 -378.464)" fill="#fc0"/>
      <circle id="Ellipse_29" data-name="Ellipse 29" cx="5.317" cy="5.317" r="5.317" transform="translate(6.641 17.832) rotate(-80.783)" fill="#fff"/>
      <path id="Path_558" data-name="Path 558" d="M1554.208,449.66c.87.585-.315,6.163-4.279,8.3-3.522,1.9-8.189.508-8.3-.519-.08-.754,2.339-.961,6.385-3.411C1552.275,451.451,1553.6,449.253,1554.208,449.66Z" transform="translate(-1522.892 -427.798)" fill="#fff"/>
    </g>
    <path id="Path_559" data-name="Path 559" d="M1721.464,542.33s-1.393,14.388,14.428,8.33C1735.892,550.66,1736.039,537.857,1721.464,542.33Z" transform="translate(-448.193 -210.817)" fill="#fc0"/>
    <path id="Path_560" data-name="Path 560" d="M1733.624,551.2c.8,1.429,1.424,3.8.561,4.443-1.124.837-4.992-1.092-5.726-4.061-.3-1.2-.178-2.976.729-3.436C1730.371,547.545,1732.58,549.342,1733.624,551.2Z" transform="translate(-453.153 -215.61)" fill="#fc0"/>
    <path id="Path_561" data-name="Path 561" d="M1421.392,356.085a1.405,1.405,0,0,1-1.4-1.267c-.007-.067-.018-.16-.031-.278-1.425-12.185,2.381-23.285,10.443-30.452,10.772-9.577,23.666-9.078,27.362-8.7a1.406,1.406,0,0,1-.288,2.8c-3.407-.351-15.293-.812-25.206,8-10.085,8.966-10.292,21.407-9.519,28.025.016.138.029.247.037.326a1.406,1.406,0,0,1-1.4,1.545Z" transform="translate(-230.584 -47.733)" fill="#fff"/>
    <path id="Path_562" data-name="Path 562" d="M1608.316,444.709a1.406,1.406,0,0,1-.965-2.427,30.705,30.705,0,0,0,9.484-28.128,1.406,1.406,0,0,1,2.76-.532,33.5,33.5,0,0,1-10.314,30.7A1.4,1.4,0,0,1,1608.316,444.709Z" transform="translate(-365.607 -117.865)" fill="#fff"/>
    <path id="Path_563" data-name="Path 563" d="M1520.046,532.852a32.817,32.817,0,0,1-7.216-.775,1.405,1.405,0,0,1,.629-2.74c5.587,1.283,13.831.991,19.652-2.553a1.406,1.406,0,0,1,1.462,2.4A28.228,28.228,0,0,1,1520.046,532.852Z" transform="translate(-296.976 -200.143)" fill="#fff"/>
    <path id="Path_564" data-name="Path 564" d="M1670.119,529.79a1.225,1.225,0,0,1-.63-.175l-13.535-8.1a1.23,1.23,0,1,1,1.263-2.111l13.535,8.1a1.23,1.23,0,0,1-.632,2.285Z" transform="translate(-400.542 -194.844)" fill="#fff"/>
    <path id="Path_565" data-name="Path 565" d="M1777.727,593.277a1.222,1.222,0,0,1-.574-.143l-12.925-6.831a1.23,1.23,0,1,1,1.149-2.175l12.925,6.831a1.23,1.23,0,0,1-.576,2.317Z" transform="translate(-478.581 -241.54)" fill="#fff"/>
    <ellipse id="Ellipse_30" data-name="Ellipse 30" cx="44.458" cy="11.527" rx="44.458" ry="11.527" transform="translate(1155.984 439.544)" fill="#f1f1f1"/>
  </g>
</svg>
