<svg id="Group_3181" data-name="Group 3181" xmlns="http://www.w3.org/2000/svg" width="71.131" height="67.099" viewBox="0 0 71.131 67.099">
  <path id="Path_7072" data-name="Path 7072" d="M2209.651,402.063a11.012,11.012,0,0,1-2.554-3.239,10.575,10.575,0,0,1,6.286-15.121,10.938,10.938,0,0,1,2.69-.489C2219.024,395.134,2209.651,402.063,2209.651,402.063Z" transform="translate(-2198.978 -360.795)" fill="#fc0"/>
  <path id="Path_7073" data-name="Path 7073" d="M2215.1,402.063a11.015,11.015,0,0,1-2.553-3.239c1.082-2.235,2.161-4.609,3.212-7.12,1.159-2.767,2.177-5.441,3.074-8a10.936,10.936,0,0,1,2.69-.489Z" transform="translate(-2204.429 -360.795)" fill="#f8c600"/>
  <path id="Path_7074" data-name="Path 7074" d="M2285.906,351.766c-.041,15.153-34.263,22.536-51.066,14.546-4.668-2.22-7.992-5.628-8.865-10.383-4.016-21.873,9.177-43.072,25.946-44.237a29.8,29.8,0,0,1,19.647,6.152C2279.6,323.915,2285.953,334.763,2285.906,351.766Z" transform="translate(-2214.775 -302.476)" fill="#fc0"/>
  <path id="Path_7075" data-name="Path 7075" d="M2309.443,411.133c.21,3.025-2.981,5.119-7.186,6.523a58.269,58.269,0,0,1-13.861,2.428c-5.558.332-16.339.112-20.447-3.138a3.907,3.907,0,0,1-1.637-2.816,11.707,11.707,0,0,1,2.99-8.642,12.367,12.367,0,0,1,8.387-4.074l18.727-1.3a12.332,12.332,0,0,1,9.953,3.916A11.643,11.643,0,0,1,2309.443,411.133Z" transform="translate(-2248.208 -374.537)" fill="#2d2d2d"/>
  <path id="Path_7076" data-name="Path 7076" d="M2316.766,428.489c.21,3.025-2.982,5.119-7.186,6.523a58.268,58.268,0,0,1-13.861,2.428c-5.558.332-16.339.112-20.447-3.138,10.979-1.095,29.555-4.2,38.42-12.917A11.645,11.645,0,0,1,2316.766,428.489Z" transform="translate(-2255.532 -391.894)" fill="#2d2d2d"/>
  <path id="Path_7077" data-name="Path 7077" d="M2328.083,379.076c-.041,15.153-34.263,22.536-51.066,14.546,9.994.953,39.654,2.511,43.961-12.026,3.7-12.5-3.052-28.369-7.233-36.442C2321.779,351.226,2328.13,362.074,2328.083,379.076Z" transform="translate(-2256.952 -329.787)" fill="#fc0"/>
  <path id="Path_7078" data-name="Path 7078" d="M2269.724,340.809c.975,1.116,6.3-1.732,9.8-4.7,3.355-2.847,6.679-7.2,5.8-8.308-.779-.982-4.733.769-7.19,2.3C2272.634,333.532,2268.661,339.593,2269.724,340.809Z" transform="translate(-2250.87 -315.415)" fill="#f5c504"/>
  <path id="Path_7079" data-name="Path 7079" d="M2235.823,504.116c.411,4.019,3.137,7.671,4.115,7.341,1.026-.346.267-5.127-.4-7.738-.191-.749-1.359-5.334-2.444-5.239C2236.242,498.555,2235.557,501.513,2235.823,504.116Z" transform="translate(-2223.344 -454.704)" fill="#fc0"/>
  <g id="Group_3176" data-name="Group 3176" transform="translate(45.377 28.291)">
    <g id="Group_3175" data-name="Group 3175">
      <path id="Path_7080" data-name="Path 7080" d="M2429.6,425.034a5.469,5.469,0,1,1-.634-2.2A5.407,5.407,0,0,1,2429.6,425.034Z" transform="translate(-2417.746 -419.015)" fill="#f2c204"/>
      <path id="Path_7081" data-name="Path 7081" d="M2420.038,415.842a5.469,5.469,0,0,1,4.818,2.89,5.407,5.407,0,0,1,.634,2.2,5.464,5.464,0,0,1-5.072,5.83c-.129.009-.258.013-.385.013a5.464,5.464,0,0,1-.373-10.915c.129-.009.25-.014.377-.014Zm.007-.933h0c-.149,0-.3.005-.449.016a6.4,6.4,0,0,0,.437,12.78c.149,0,.3-.005.449-.016a6.4,6.4,0,0,0-.438-12.78Z" transform="translate(-2413.639 -414.909)" fill="#fbefc2"/>
    </g>
    <path id="Path_7082" data-name="Path 7082" d="M2428.981,422.823c-1.693,5.061-6.751,5.265-9.759,4.9a5.462,5.462,0,0,1,9.759-4.9Z" transform="translate(-2417.77 -419.01)" fill="#fc0"/>
    <path id="Path_7083" data-name="Path 7083" d="M2430.283,432.34a1.814,1.814,0,1,1-1.935-1.684A1.814,1.814,0,0,1,2430.283,432.34Z" transform="translate(-2424.247 -427.734)" fill="#fff"/>
    <path id="Path_7084" data-name="Path 7084" d="M2453.627,453.494c.31.179.039,2.105-1.26,2.925-1.154.729-2.775.366-2.836.02-.045-.255.773-.382,2.092-1.312C2453.012,454.148,2453.412,453.369,2453.627,453.494Z" transform="translate(-2442.88 -446.334)" fill="#fff"/>
  </g>
  <g id="Group_3178" data-name="Group 3178" transform="translate(21.195 29.971)">
    <g id="Group_3177" data-name="Group 3177">
      <path id="Path_7085" data-name="Path 7085" d="M2299.079,434.1a5.469,5.469,0,1,1-.634-2.2A5.406,5.406,0,0,1,2299.079,434.1Z" transform="translate(-2287.228 -428.079)" fill="#efc108"/>
      <path id="Path_7086" data-name="Path 7086" d="M2289.535,424.906a5.465,5.465,0,0,1,.365,10.916q-.193.014-.385.014a5.464,5.464,0,0,1-.373-10.915c.129-.009.266-.015.393-.015Zm-.009-.932h0c-.149,0-.3.005-.449.016a6.4,6.4,0,0,0,.437,12.78c.149,0,.3-.005.449-.016a6.405,6.405,0,0,0,5.939-6.826,6.4,6.4,0,0,0-6.377-5.955Z" transform="translate(-2283.121 -423.973)" fill="#fbefc2"/>
    </g>
    <path id="Path_7087" data-name="Path 7087" d="M2298.469,431.9c-1.693,5.061-6.757,5.254-9.765,4.889a5.462,5.462,0,0,1,9.765-4.889Z" transform="translate(-2287.252 -428.075)" fill="#fc0"/>
    <path id="Path_7088" data-name="Path 7088" d="M2299.765,441.4a1.814,1.814,0,1,1-1.935-1.684A1.814,1.814,0,0,1,2299.765,441.4Z" transform="translate(-2293.729 -436.798)" fill="#fff"/>
    <path id="Path_7089" data-name="Path 7089" d="M2323.109,462.557c.31.178.039,2.105-1.26,2.925-1.154.729-2.775.367-2.836.02-.045-.255.773-.382,2.092-1.312C2322.494,463.212,2322.894,462.433,2323.109,462.557Z" transform="translate(-2312.362 -455.398)" fill="#fff"/>
  </g>
  <path id="Path_7090" data-name="Path 7090" d="M2331.491,409.284c.078.358-2.312,1.382-4.833,1.792-4.09.665-7.952-.376-7.928-.836.011-.211,2.612-.417,7.813-.82C2330.722,409.1,2331.45,409.094,2331.491,409.284Z" transform="translate(-2290.937 -381.93)" fill="#2d2d2d"/>
  <g id="Group_3179" data-name="Group 3179" transform="translate(0)">
    <path id="Path_7091" data-name="Path 7091" d="M2183.025,323.22a15.7,15.7,0,0,1-4.72-5.95c-1.713-3.627-3-9.739.616-18.261l1.5.638c-2.695,6.358-2.923,12.027-.679,16.848a14.368,14.368,0,0,0,4.206,5.379Z" transform="translate(-2175.147 -292.191)" fill="#fc0"/>
    <circle id="Ellipse_39" data-name="Ellipse 39" cx="3.804" cy="3.804" r="3.804" transform="translate(0 4.76) rotate(-38.729)" fill="#fc0"/>
    <path id="Path_7092" data-name="Path 7092" d="M2184.292,276.452a2.041,2.041,0,1,0,1.893-2.18A2.041,2.041,0,0,0,2184.292,276.452Z" transform="translate(-2181.403 -272.034)" fill="#eebf03"/>
  </g>
  <g id="Group_3180" data-name="Group 3180" transform="translate(31.193 48.626)">
    <path id="Path_7093" data-name="Path 7093" d="M2347.066,534.977a8.192,8.192,0,0,1-6.4-2.28c-2.927-2.648-4.167-6.648-3.329-6.821,1.3-.266,4.657,1.561,8.207,1.214,4.078-.4,6.721-2.066,8.806-2.387.094-.016.184-.027.275-.036C2356.757,524.457,2355.079,534.192,2347.066,534.977Z" transform="translate(-2337.084 -524.662)" fill="#2d2d2d"/>
    <path id="Path_7094" data-name="Path 7094" d="M2362.835,534.977a8.193,8.193,0,0,1-6.4-2.28c3.484-.982,10.283-3.4,13.684-8,.093-.016.184-.027.274-.036C2372.525,524.457,2370.847,534.192,2362.835,534.977Z" transform="translate(-2352.852 -524.662)" fill="#2d2d2d"/>
  </g>
</svg>
