<svg xmlns="http://www.w3.org/2000/svg" width="32.571" height="30.555" viewBox="0 0 32.571 30.555">
  <g id="Group_3140" data-name="Group 3140" transform="translate(-31.505 -871.39)">
    <path id="Path_7140" data-name="Path 7140" d="M201.477,84.694H217.6l4.252,4.252v21.9H201.477Z" transform="translate(-158.28 787.196)" fill="#2d2d2d" stroke="#2d2d2d" stroke-width="1"/>
    <path id="Path_7141" data-name="Path 7141" d="M361,84.694v4.252h4.252Z" transform="translate(-301.672 787.196)" fill="#3e374b"/>
    <g id="Group_3138" data-name="Group 3138" transform="translate(46.515 877.643)">
      <path id="Path_7142" data-name="Path 7142" d="M234.295,141.6h13.733v1.312H234.295Z" transform="translate(-234.295 -141.605)" fill="#fff"/>
      <path id="Path_7143" data-name="Path 7143" d="M234.295,167.984h13.733V169.3H234.295Z" transform="translate(-234.295 -165.317)" fill="#fff"/>
      <path id="Path_7144" data-name="Path 7144" d="M234.295,194.467h13.733v1.312H234.295Z" transform="translate(-234.295 -189.123)" fill="#fff"/>
      <path id="Path_7145" data-name="Path 7145" d="M234.295,220.95h13.733v1.312H234.295Z" transform="translate(-234.295 -212.929)" fill="#fff"/>
      <path id="Path_7146" data-name="Path 7146" d="M234.295,247.329h13.733v1.312H234.295Z" transform="translate(-234.295 -236.641)" fill="#fff"/>
      <path id="Path_7147" data-name="Path 7147" d="M234.295,273.812h13.733v1.312H234.295Z" transform="translate(-234.295 -260.446)" fill="#fff"/>
      <path id="Path_7148" data-name="Path 7148" d="M234.295,300.3h13.733v1.312H234.295Z" transform="translate(-234.295 -284.252)" fill="#fff"/>
    </g>
    <path id="Path_7149" data-name="Path 7149" d="M90.768,118.343h16.127l4.252,4.252v21.9H90.768Z" transform="translate(-58.763 756.949)" fill="#2d2d2d" stroke="#2d2d2d" stroke-width="1"/>
    <path id="Path_7150" data-name="Path 7150" d="M250.288,118.343V122.6h4.252Z" transform="translate(-202.156 756.949)" fill="#3e374b"/>
    <g id="Group_3139" data-name="Group 3139" transform="translate(35.333 881.035)">
      <path id="Path_7151" data-name="Path 7151" d="M123.69,175.15h13.733v1.312H123.69Z" transform="translate(-123.69 -175.15)" fill="#fff"/>
      <path id="Path_7152" data-name="Path 7152" d="M123.69,201.633h13.733v1.312H123.69Z" transform="translate(-123.69 -198.956)" fill="#fff"/>
      <path id="Path_7153" data-name="Path 7153" d="M123.69,228.116h13.733v1.312H123.69Z" transform="translate(-123.69 -222.761)" fill="#fff"/>
      <path id="Path_7154" data-name="Path 7154" d="M123.69,254.5h13.733v1.312H123.69Z" transform="translate(-123.69 -246.474)" fill="#fff"/>
      <path id="Path_7155" data-name="Path 7155" d="M123.69,280.978h13.733v1.312H123.69Z" transform="translate(-123.69 -270.279)" fill="#fff"/>
      <path id="Path_7156" data-name="Path 7156" d="M123.69,307.461h13.733v1.312H123.69Z" transform="translate(-123.69 -294.085)" fill="#fff"/>
      <path id="Path_7157" data-name="Path 7157" d="M123.69,333.84h13.733v1.312H123.69Z" transform="translate(-123.69 -317.797)" fill="#fff"/>
    </g>
  </g>
</svg>
