<svg xmlns="http://www.w3.org/2000/svg" width="24" height="27.236" viewBox="0 0 24 27.236">
  <g id="Group_3220" data-name="Group 3220" transform="translate(-171.176 -648.764)">
    <path id="Union_3" data-name="Union 3" d="M-1975.843,22.432H-1980a5,5,0,0,1-5-5V5a5,5,0,0,1,5-5h14a5,5,0,0,1,5,5V17.431a5,5,0,0,1-5,5h-4.157l-2.844,4.8Z" transform="translate(2156.177 648.764)" fill="red"/>
    <path id="Icon_material-error-outline" data-name="Icon material-error-outline" d="M9.138,11.866H10.5V13.23H9.138Zm0-5.456H10.5V10.5H9.138ZM9.813,3A6.82,6.82,0,1,0,16.64,9.82,6.817,6.817,0,0,0,9.813,3ZM9.82,15.276A5.456,5.456,0,1,1,15.276,9.82,5.455,5.455,0,0,1,9.82,15.276Z" transform="translate(173.356 650.648)" fill="#fff"/>
  </g>
</svg>
