<svg xmlns="http://www.w3.org/2000/svg" width="28.36" height="24.025" viewBox="0 0 28.36 24.025">
  <path id="Icon_open-people" data-name="Icon open-people" d="M19.5,0a5.09,5.09,0,0,0-4.325,2.639,8.974,8.974,0,0,1,2.552,6.389,9.029,9.029,0,0,1-.319,2.429,4.712,4.712,0,0,0,2.092.57c2.942,0,5.318-2.7,5.318-6S22.44.03,19.5.03ZM8.863,3C5.92,3,3.545,5.7,3.545,9s2.375,6,5.318,6,5.318-2.7,5.318-6S11.8,3,8.863,3ZM25.7,12.477A8.669,8.669,0,0,1,19.71,15a6.251,6.251,0,0,1,1.56,4.019V21h7.09V16.017A4.023,4.023,0,0,0,25.7,12.447Zm-23.043,3A4.023,4.023,0,0,0,0,19.046v4.979H17.725V19.046a4.023,4.023,0,0,0-2.659-3.569A8.668,8.668,0,0,1,8.863,18a8.793,8.793,0,0,1-6.2-2.519Z" fill="#fc0"/>
</svg>
