<svg xmlns="http://www.w3.org/2000/svg" width="22" height="22" viewBox="0 0 22 22">
  <path id="Icon_ionic-md-settings" data-name="Icon ionic-md-settings" d="M22.729,15.475a6.879,6.879,0,0,0,.056-1.1c0-.385-.056-.715-.056-1.1l2.362-1.815a.505.505,0,0,0,.113-.715l-2.25-3.8a.548.548,0,0,0-.675-.22l-2.813,1.1a8.188,8.188,0,0,0-1.912-1.1l-.394-2.915a.6.6,0,0,0-.563-.44H12.1a.6.6,0,0,0-.563.44l-.45,2.915a9.526,9.526,0,0,0-1.913,1.1L6.358,6.73a.527.527,0,0,0-.675.22l-2.25,3.8a.664.664,0,0,0,.113.715l2.419,1.815c0,.385-.056.715-.056,1.1s.056.715.056,1.1L3.6,17.29A.505.505,0,0,0,3.49,18l2.25,3.8a.548.548,0,0,0,.675.22l2.813-1.1a8.186,8.186,0,0,0,1.912,1.1l.45,2.915a.545.545,0,0,0,.563.44h4.5a.6.6,0,0,0,.563-.44l.45-2.915a9.521,9.521,0,0,0,1.912-1.1l2.813,1.1a.527.527,0,0,0,.675-.22l2.25-3.8a.663.663,0,0,0-.113-.715Zm-8.382,2.75a3.851,3.851,0,1,1,3.938-3.85A3.87,3.87,0,0,1,14.347,18.225Z" transform="translate(-3.375 -3.375)" fill="#fc0"/>
</svg>
