<svg xmlns="http://www.w3.org/2000/svg" width="21.542" height="18.232" viewBox="0 0 21.542 18.232">
  <g id="Icon_ionic-ios-log-out" data-name="Icon ionic-ios-log-out" transform="translate(-3.375 -5.625)">
    <path id="Path_7162" data-name="Path 7162" d="M17.049,20.749a.727.727,0,0,0-.725.725.935.935,0,0,1-.932.932H5.758a.935.935,0,0,1-.932-.932V8.008a.935.935,0,0,1,.932-.932h9.634a.935.935,0,0,1,.932.932.725.725,0,1,0,1.45,0,2.383,2.383,0,0,0-2.383-2.383H5.758A2.383,2.383,0,0,0,3.375,8.008V21.475a2.383,2.383,0,0,0,2.383,2.383h9.634a2.383,2.383,0,0,0,2.383-2.383A.727.727,0,0,0,17.049,20.749Z" fill="#fc345c"/>
    <path id="Path_7163" data-name="Path 7163" d="M22.055,11.04a.721.721,0,0,0-.513-.212.708.708,0,0,0-.513.212.722.722,0,0,0,0,1.026l3.377,3.325H11.131a.725.725,0,1,0,0,1.45H24.422l-3.294,3.32a.732.732,0,0,0,0,1.026l.005.005a.749.749,0,0,0,.508.2.7.7,0,0,0,.513-.212l4.278-4.268a1.018,1.018,0,0,0,0-1.512Z" transform="translate(-1.852 -1.37)" fill="#fc345c"/>
  </g>
</svg>
