<svg xmlns="http://www.w3.org/2000/svg" width="29.873" height="29.798" viewBox="0 0 29.873 29.798">
  <path id="Icon_material-slow-motion-video" data-name="Icon material-slow-motion-video" d="M19.546,14.665l-4.567-3.429V24.712l4.567-3.429,4.417-3.309Zm0,0-4.567-3.429V24.712l4.567-3.429,4.417-3.309Zm0,0-4.567-3.429V24.712l4.567-3.429,4.417-3.309ZM16.477,6.1V3.075A14.9,14.9,0,0,0,8.511,6.384l2.126,2.141A11.891,11.891,0,0,1,16.477,6.1ZM8.526,10.637,6.384,8.511a14.9,14.9,0,0,0-3.309,7.966H6.1A11.891,11.891,0,0,1,8.526,10.637ZM6.1,19.471H3.075a14.9,14.9,0,0,0,3.309,7.966L8.526,25.3A11.781,11.781,0,0,1,6.1,19.471ZM8.511,29.564a14.946,14.946,0,0,0,7.966,3.309V29.848a11.891,11.891,0,0,1-5.84-2.426L8.511,29.564Zm24.437-11.59a15,15,0,0,1-13.4,14.9V29.848a11.978,11.978,0,0,0,0-23.749V3.075A15,15,0,0,1,32.948,17.974Z" transform="translate(-3.075 -3.075)" fill="#2d2d2d"/>
</svg>
