<svg xmlns="http://www.w3.org/2000/svg" width="17.3" height="17.304" viewBox="0 0 17.3 17.304">
  <path id="Icon_ionic-ios-settings" data-name="Icon ionic-ios-settings" d="M20.371,13.15A2.226,2.226,0,0,1,21.8,11.073,8.824,8.824,0,0,0,20.732,8.5a2.256,2.256,0,0,1-.906.194,2.221,2.221,0,0,1-2.032-3.127A8.8,8.8,0,0,0,15.227,4.5a2.224,2.224,0,0,1-4.154,0A8.824,8.824,0,0,0,8.5,5.568,2.221,2.221,0,0,1,6.469,8.694,2.183,2.183,0,0,1,5.563,8.5,9.019,9.019,0,0,0,4.5,11.077a2.225,2.225,0,0,1,0,4.154A8.824,8.824,0,0,0,5.572,17.8a2.222,2.222,0,0,1,2.933,2.933A8.875,8.875,0,0,0,11.077,21.8a2.22,2.22,0,0,1,4.145,0,8.824,8.824,0,0,0,2.572-1.068A2.224,2.224,0,0,1,20.727,17.8,8.875,8.875,0,0,0,21.8,15.231,2.237,2.237,0,0,1,20.371,13.15Zm-7.181,3.6a3.6,3.6,0,1,1,3.6-3.6A3.6,3.6,0,0,1,13.19,16.749Z" transform="translate(-4.5 -4.5)" fill="#fff"/>
</svg>
