<svg xmlns="http://www.w3.org/2000/svg" width="20" height="20" viewBox="0 0 20 20">
  <path id="Icon_ionic-ios-help-circle" data-name="Icon ionic-ios-help-circle" d="M13.375,3.375a10,10,0,1,0,10,10A10,10,0,0,0,13.375,3.375ZM13.168,17.99A.991.991,0,1,1,14.2,17,1,1,0,0,1,13.168,17.99ZM15.1,13.332c-.837.486-1.12.841-1.12,1.457v.38H12.313l-.014-.413a2,2,0,0,1,1.135-2.115c.813-.486,1.154-.793,1.154-1.389a1.167,1.167,0,0,0-1.293-1.034A1.216,1.216,0,0,0,12,11.4H10.3c.034-1.548,1.178-2.644,3.111-2.644,1.8,0,3.043,1,3.043,2.438A2.353,2.353,0,0,1,15.1,13.332Z" transform="translate(-3.375 -3.375)" fill="#fc0"/>
</svg>
